<?xml version="1.0" encoding="utf-8"?>
<!-- Generator: Adobe Illustrator 14.0.0, SVG Export Plug-In . SVG Version: 6.00 Build 43363)  -->
<!DOCTYPE svg PUBLIC "-//W3C//DTD SVG 1.1//EN" "http://www.w3.org/Graphics/SVG/1.1/DTD/svg11.dtd">
<svg version="1.1" xmlns="http://www.w3.org/2000/svg" xmlns:xlink="http://www.w3.org/1999/xlink" x="0px" y="0px"
	 width="537.593px" height="347.132px" viewBox="0 0 537.593 347.132" enable-background="new 0 0 537.593 347.132"
	 xml:space="preserve">
<g id="Calque_2">
	<g>
		<polygon fill="#D8D8D8" points="4.693,298.61 11.948,312.989 68.227,341.745 124.505,312.989 117.25,298.612 60.972,327.366 		"/>
	</g>
	<g>
		<polygon fill="#D8D8D8" points="100.311,249.755 107.566,264.132 163.845,292.888 220.123,264.132 212.868,249.755 
			156.589,278.511 		"/>
	</g>
	<g>
		<polygon fill="#D8D8D8" points="196.159,200.78 203.415,215.158 259.693,243.914 315.972,215.158 308.716,200.781 
			252.438,229.536 		"/>
	</g>
	<g>
		<polygon fill="#D8D8D8" points="315.3,225.177 322.556,239.556 378.834,268.311 435.113,239.556 427.857,225.178 371.579,253.932 
					"/>
	</g>
	<g>
		<polygon fill="#D8D8D8" points="295.998,149.768 303.253,164.146 359.532,192.901 415.811,164.146 408.555,149.77 
			352.276,178.522 		"/>
	</g>
	<g>
		<polygon fill="#D8D8D8" points="390.218,101.626 397.474,116.004 453.752,144.759 510.031,116.004 502.775,101.627 
			446.497,130.382 		"/>
	</g>
	<g>
		<polygon fill="#D8D8D8" points="412.575,176.555 419.831,190.933 476.109,219.688 532.388,190.933 525.132,176.556 
			468.854,205.311 		"/>
	</g>
</g>
<g id="Calque_1">
	<path fill="#D8D8D8" d="M242.544,91.535c-22.354,0-40.922-7.389-44.609-17.104c-0.666-1.815-0.666-3.544-0.666-3.544
		s0,6.144,0,7.09c0,11.402,20.27,20.646,45.274,20.646c25.008,0,45.278-9.243,45.278-20.646c0-0.983,0-7.09,0-7.09
		s0,1.782-0.668,3.544C283.469,84.146,264.9,91.535,242.544,91.535z"/>
	<g>
		<ellipse fill="#FFFFFF" stroke="#000000" stroke-width="0.382" cx="237.763" cy="61.167" rx="50.156" ry="23.588"/>
		<ellipse fill="none" stroke="#000000" stroke-width="0.3655" cx="237.763" cy="61.167" rx="43.577" ry="20.493"/>
		<path fill="#E2E2E2" stroke="#000000" stroke-width="0.382" d="M237.763,84.755c-24.763,0-45.332-8.441-49.415-19.54
			c-0.738-2.074-0.738-4.049-0.738-4.049s0,7.019,0,8.1c0,13.026,22.454,23.587,50.153,23.587c27.701,0,50.156-10.561,50.156-23.587
			c0-1.123,0-8.1,0-8.1s0,2.036-0.74,4.049C283.097,76.313,262.528,84.755,237.763,84.755z"/>
		<g>
			<path fill="#FFFFFF" stroke="#000000" stroke-width="0.382" d="M219.543,62.499l-1.904,3.807l-22.938-3.435h14.683l1.906-4.179
				l14.626,0.005l4.267-10.828h16.512c11.339,0,15.419,2.015,13.803,6.118l-0.375,0.949c-1.079,2.736-3.939,4.444-9.156,5.319
				l-0.031,0.076c5.525,0.872,7.035,2.849,5.928,5.66l-0.855,2.163c-1.615,4.104-8.154,6.308-19.096,6.308h-17.208l4.715-11.964
				H219.543z M235.359,62.495l-3.216,8.167h6.266c3.681,0,5.925-0.643,6.702-2.619l0.913-2.318c0.972-2.47-0.817-3.229-5.79-3.229
				H235.359L235.359,62.495z M239.626,51.67l-2.769,7.027h4.276c4.078,0,6.832-0.685,7.67-2.811l0.585-1.482
				c0.75-1.899-0.612-2.734-4.491-2.734H239.626L239.626,51.67z"/>
		</g>
	</g>
	<path fill="#D8D8D8" d="M127.659,91.501c-22.354,0-40.923-7.389-44.609-17.104c-0.665-1.816-0.665-3.544-0.665-3.544
		s0,6.144,0,7.089c0,11.403,20.27,20.646,45.274,20.646c25.007,0,45.278-9.243,45.278-20.646c0-0.982,0-7.089,0-7.089
		s0,1.782-0.668,3.544C168.583,84.112,150.015,91.501,127.659,91.501z"/>
	<g>
		<polygon fill="#FFFFFF" stroke="#000000" stroke-width="0.382" points="390.219,101.627 390.219,31.228 446.497,2.472 
			502.775,31.228 502.775,101.627 446.497,130.382 		"/>
		<g>
			<polyline fill="#FFFFFF" stroke="#000000" stroke-width="0.382" points="390.219,31.741 446.497,60.497 502.775,31.741 			"/>
			<line fill="#FFFFFF" stroke="#000000" stroke-width="0.382" x1="446.497" y1="60.497" x2="446.497" y2="130.382"/>
		</g>
	</g>
	<g>
		<polygon fill="#E2E2E2" stroke="#000000" stroke-width="0.382" points="446.497,130.382 446.497,60.497 502.775,31.741 
			502.775,101.627 		"/>
		<polygon fill="#F7F7F7" stroke="#000000" stroke-width="0.382" points="446.497,130.382 446.497,60.497 390.218,31.741 
			390.218,101.627 		"/>
	</g>
	<g>
		<polygon fill="#FFFFFF" stroke="#000000" stroke-width="0.382" points="383.373,95.906 383.373,82.864 412.182,68.35 
			422.608,73.679 422.608,86.722 393.799,101.234 		"/>
		<g>
			<polyline fill="#FFFFFF" stroke="#000000" stroke-width="0.382" points="383.373,82.958 393.799,88.287 422.608,73.773 			"/>
			<line fill="#FFFFFF" stroke="#000000" stroke-width="0.382" x1="393.799" y1="88.287" x2="393.799" y2="101.234"/>
		</g>
	</g>
	<polygon fill="#E2E2E2" stroke="#000000" stroke-width="0.382" points="393.799,101.235 393.799,88.288 422.608,73.773 
		422.608,86.722 	"/>
	<g>
		<polygon fill="#FFFFFF" stroke="#000000" stroke-width="0.382" points="295.998,149.77 295.998,79.37 352.276,50.613 
			408.555,79.37 408.555,149.77 352.276,178.524 		"/>
		<g>
			<polyline fill="#FFFFFF" stroke="#000000" stroke-width="0.382" points="295.998,79.883 352.276,108.639 408.555,79.883 			"/>
			<line fill="#FFFFFF" stroke="#000000" stroke-width="0.382" x1="352.276" y1="108.639" x2="352.276" y2="178.524"/>
		</g>
	</g>
	<g>
		<polygon fill="#E2E2E2" stroke="#000000" stroke-width="0.382" points="352.276,178.524 352.276,108.639 408.555,79.883 
			408.555,149.77 		"/>
		<polygon fill="#F7F7F7" stroke="#000000" stroke-width="0.382" points="352.276,178.524 352.276,108.639 295.998,79.883 
			295.998,149.77 		"/>
	</g>
	<g>
		<polygon fill="#FFFFFF" stroke="#000000" stroke-width="0.382" points="284.552,147.611 284.552,134.568 313.36,120.055 
			323.787,125.383 323.787,138.427 294.979,152.938 		"/>
		<g>
			<polyline fill="#FFFFFF" stroke="#000000" stroke-width="0.382" points="284.552,134.663 294.979,139.991 323.787,125.478 			"/>
			<line fill="#FFFFFF" stroke="#000000" stroke-width="0.382" x1="294.979" y1="139.991" x2="294.979" y2="152.938"/>
		</g>
	</g>
	<polygon fill="#E2E2E2" stroke="#000000" stroke-width="0.382" points="294.979,152.939 294.979,139.992 323.787,125.479 
		323.787,138.427 	"/>
	<polygon fill="#FFFFFF" stroke="#000000" stroke-width="0.382" points="196.159,200.781 196.159,130.382 252.438,101.627 
		308.716,130.382 308.716,200.781 252.438,229.537 	"/>
	<polygon fill="#E2E2E2" stroke="#000000" stroke-width="0.382" points="252.438,229.537 252.438,159.651 308.716,130.896 
		308.716,200.781 	"/>
	<polygon fill="#F7F7F7" stroke="#000000" stroke-width="0.382" points="252.438,229.537 252.438,159.651 196.159,130.896 
		196.159,200.781 	"/>
	<polyline fill="#00579D" stroke="#000000" stroke-width="0.382" points="196.159,130.896 252.438,159.651 308.716,130.896 	"/>
	<line fill="#00579D" stroke="#000000" stroke-width="0.382" x1="252.438" y1="159.651" x2="252.438" y2="229.537"/>
	<polygon fill="#D8D8D8" points="252.438,101.627 308.716,130.896 252.438,159.651 196.159,130.896 	"/>
	<polygon fill="#F7F7F7" stroke="#000000" stroke-width="0.382" points="231.22,78.917 174.941,107.674 196.159,130.382 
		252.438,101.627 	"/>
	<polygon fill="#F7F7F7" stroke="#000000" stroke-width="0.382" points="273.654,78.917 329.933,107.674 308.716,130.382 
		252.438,101.627 	"/>
	<line fill="#00579D" stroke="#000000" stroke-width="0.382" x1="252.438" y1="101.627" x2="252.438" y2="159.651"/>
	<g>
		<polygon fill="#FFFFFF" stroke="#000000" stroke-width="0.382" points="188.523,196.488 188.523,183.444 217.332,168.931 
			227.758,174.26 227.758,187.302 198.949,201.815 		"/>
		<g>
			<polyline fill="#FFFFFF" stroke="#000000" stroke-width="0.382" points="188.523,183.539 198.949,188.868 227.758,174.354 			"/>
			<line fill="#FFFFFF" stroke="#000000" stroke-width="0.382" x1="198.949" y1="188.868" x2="198.949" y2="201.815"/>
		</g>
	</g>
	<polygon fill="#E2E2E2" stroke="#000000" stroke-width="0.382" points="198.949,201.815 198.949,188.868 227.758,174.354 
		227.758,187.302 	"/>
	<g>
		<polygon fill="#E2E2E2" stroke="#000000" stroke-width="0.382" points="345.816,189.23 345.816,176.188 285.787,167.605 
			275.361,172.934 275.361,185.978 335.39,194.558 		"/>
		<g>
			<polyline fill="#E2E2E2" stroke="#000000" stroke-width="0.382" points="345.816,176.283 335.39,181.611 275.361,173.028 			"/>
			<line fill="#E2E2E2" stroke="#000000" stroke-width="0.382" x1="335.39" y1="181.611" x2="335.39" y2="194.558"/>
		</g>
	</g>
	<polygon fill="#F7F7F7" stroke="#000000" stroke-width="0.382" points="196.159,130.896 252.438,159.651 231.22,182.36 
		174.941,153.604 	"/>
	<g>
		<polygon fill="#FFFFFF" stroke="#000000" stroke-width="0.382" points="100.311,249.755 100.311,179.355 156.589,150.601 
			212.868,179.355 212.868,249.755 156.589,278.511 		"/>
		<g>
			<polyline fill="#FFFFFF" stroke="#000000" stroke-width="0.382" points="100.311,179.869 156.589,208.625 212.868,179.869 			"/>
			<line fill="#FFFFFF" stroke="#000000" stroke-width="0.382" x1="156.589" y1="208.625" x2="156.589" y2="278.511"/>
		</g>
	</g>
	<polygon fill="#EDEDED" stroke="#000000" stroke-width="0.382" points="275.361,185.978 275.361,172.934 335.39,181.611 
		335.39,194.558 	"/>
	<polygon fill="#E2E2E2" stroke="#000000" stroke-width="0.382" points="308.716,130.896 252.438,159.651 273.654,182.36 
		329.933,153.604 	"/>
	<g>
		<polygon fill="#FFFFFF" stroke="#000000" stroke-width="0.382" points="412.575,176.556 412.575,106.156 468.854,77.4 
			525.132,106.156 525.132,176.556 468.854,205.311 		"/>
		<g>
			<polyline fill="#FFFFFF" stroke="#000000" stroke-width="0.382" points="412.575,106.67 468.854,135.426 525.132,106.67 			"/>
			<line fill="#FFFFFF" stroke="#000000" stroke-width="0.382" x1="468.854" y1="135.426" x2="468.854" y2="205.311"/>
		</g>
	</g>
	<g>
		<polygon fill="#E2E2E2" stroke="#000000" stroke-width="0.382" points="156.589,278.511 156.589,208.625 212.868,179.869 
			212.868,249.755 		"/>
		<polygon fill="#F7F7F7" stroke="#000000" stroke-width="0.382" points="156.589,278.511 156.589,208.625 100.311,179.869 
			100.311,249.755 		"/>
	</g>
	<g>
		<polygon fill="#E2E2E2" stroke="#000000" stroke-width="0.382" points="468.854,205.311 468.854,135.426 525.132,106.669 
			525.132,176.556 		"/>
		<polygon fill="#F7F7F7" stroke="#000000" stroke-width="0.382" points="468.854,205.311 468.854,135.426 412.575,106.669 
			412.575,176.556 		"/>
	</g>
	<g>
		<polygon fill="#FFFFFF" stroke="#000000" stroke-width="0.382" points="95.341,243.648 95.341,230.605 124.149,216.091 
			134.576,221.42 134.576,234.463 105.767,248.977 		"/>
		<g>
			<polyline fill="#FFFFFF" stroke="#000000" stroke-width="0.382" points="95.341,230.699 105.767,236.028 134.576,221.514 			"/>
			<line fill="#FFFFFF" stroke="#000000" stroke-width="0.382" x1="105.767" y1="236.028" x2="105.767" y2="248.977"/>
		</g>
	</g>
	<g>
		<polygon fill="#FFFFFF" stroke="#000000" stroke-width="0.382" points="4.693,298.61 4.693,228.212 60.972,199.456 
			117.25,228.212 117.25,298.61 60.972,327.366 		"/>
		<g>
			<polyline fill="#FFFFFF" stroke="#000000" stroke-width="0.382" points="4.693,228.725 60.972,257.48 117.25,228.725 			"/>
			<line fill="#FFFFFF" stroke="#000000" stroke-width="0.382" x1="60.972" y1="257.48" x2="60.972" y2="327.366"/>
		</g>
	</g>
	<g>
		<polygon fill="#FFFFFF" stroke="#000000" stroke-width="0.382" points="402.991,171.229 402.991,158.185 431.799,143.671 
			442.225,149 442.225,162.044 413.417,176.556 		"/>
		<g>
			<polyline fill="#FFFFFF" stroke="#000000" stroke-width="0.382" points="402.991,158.279 413.417,163.608 442.225,149.095 			"/>
			<line fill="#FFFFFF" stroke="#000000" stroke-width="0.382" x1="413.417" y1="163.608" x2="413.417" y2="176.556"/>
		</g>
	</g>
	<g>
		<polygon fill="#FFFFFF" stroke="#000000" stroke-width="0.382" points="315.3,225.178 315.3,154.778 371.579,126.022 
			427.857,154.778 427.857,225.178 371.579,253.934 		"/>
		<g>
			<polyline fill="#FFFFFF" stroke="#000000" stroke-width="0.382" points="315.3,155.292 371.579,184.048 427.857,155.292 			"/>
			<line fill="#FFFFFF" stroke="#000000" stroke-width="0.382" x1="371.579" y1="184.048" x2="371.579" y2="253.934"/>
		</g>
	</g>
	<polygon fill="#E2E2E2" stroke="#000000" stroke-width="0.382" points="413.417,176.557 413.417,163.608 442.225,149.095 
		442.225,162.044 	"/>
	<g>
		<polygon fill="#E2E2E2" stroke="#000000" stroke-width="0.382" points="371.579,253.934 371.579,184.048 427.857,155.292 
			427.857,225.178 		"/>
		<polygon fill="#F7F7F7" stroke="#000000" stroke-width="0.382" points="371.579,253.934 371.579,184.048 315.3,155.292 
			315.3,225.178 		"/>
	</g>
	<polygon fill="#E2E2E2" stroke="#000000" stroke-width="0.382" points="105.768,248.977 105.768,236.028 134.576,221.514 
		134.576,234.463 	"/>
	<g>
		<polygon fill="#E2E2E2" stroke="#000000" stroke-width="0.382" points="60.972,327.366 60.972,257.48 117.25,228.725 
			117.25,298.61 		"/>
		<polygon fill="#F7F7F7" stroke="#000000" stroke-width="0.382" points="60.972,327.366 60.972,257.48 4.694,228.725 4.694,298.61 
					"/>
	</g>
	<g>
		<ellipse fill="#FFFFFF" stroke="#000000" stroke-width="0.382" cx="122.877" cy="61.133" rx="50.156" ry="23.588"/>
		<ellipse fill="none" stroke="#000000" stroke-width="0.3655" cx="122.877" cy="61.132" rx="43.577" ry="20.493"/>
		<path fill="#E2E2E2" stroke="#000000" stroke-width="0.382" d="M122.877,84.721c-24.763,0-45.332-8.441-49.416-19.54
			c-0.737-2.074-0.737-4.049-0.737-4.049s0,7.019,0,8.1c0,13.026,22.454,23.586,50.153,23.586c27.701,0,50.156-10.56,50.156-23.586
			c0-1.123,0-8.1,0-8.1s0,2.036-0.74,4.049C168.211,76.279,147.642,84.721,122.877,84.721z"/>
		<g>
			<path fill="#FFFFFF" stroke="#000000" stroke-width="0.382" d="M104.658,62.465l-1.904,3.807l-22.938-3.435h14.682l1.906-4.179
				l14.626,0.005l4.266-10.828h16.512c11.339,0,15.419,2.015,13.804,6.117l-0.375,0.95c-1.08,2.735-3.94,4.444-9.156,5.319
				l-0.031,0.075c5.525,0.873,7.035,2.85,5.927,5.66l-0.854,2.164c-1.616,4.104-8.154,6.308-19.097,6.308h-17.208l4.715-11.964
				H104.658z M120.474,62.461l-3.217,8.167h6.266c3.681,0,5.925-0.644,6.702-2.62l0.914-2.317c0.972-2.47-0.817-3.229-5.79-3.229
				H120.474L120.474,62.461z M124.74,51.635l-2.769,7.028h4.277c4.077,0,6.832-0.685,7.67-2.811l0.585-1.483
				c0.749-1.898-0.612-2.734-4.491-2.734H124.74L124.74,51.635z"/>
		</g>
	</g>
	<g>
		<ellipse fill="#FFFFFF" stroke="#000000" stroke-width="0.382" cx="121.348" cy="49.94" rx="50.156" ry="23.588"/>
		<ellipse fill="none" stroke="#000000" stroke-width="0.3655" cx="121.348" cy="49.939" rx="43.577" ry="20.493"/>
		<path fill="#E2E2E2" stroke="#000000" stroke-width="0.382" d="M121.348,73.528c-24.763,0-45.332-8.441-49.415-19.54
			c-0.737-2.074-0.737-4.049-0.737-4.049s0,7.019,0,8.1c0,13.026,22.454,23.586,50.152,23.586c27.701,0,50.156-10.56,50.156-23.586
			c0-1.123,0-8.1,0-8.1s0,2.036-0.74,4.049C166.682,65.087,146.113,73.528,121.348,73.528z"/>
		<g>
			<path fill="#FFFFFF" stroke="#000000" stroke-width="0.382" d="M103.129,51.272l-1.905,3.807l-22.938-3.435h14.683l1.906-4.179
				l14.626,0.005l4.266-10.828h16.512c11.339,0,15.419,2.015,13.804,6.117l-0.375,0.95c-1.08,2.735-3.94,4.444-9.157,5.318
				l-0.031,0.076c5.525,0.873,7.035,2.85,5.927,5.66l-0.854,2.164c-1.616,4.104-8.154,6.307-19.097,6.307h-17.208l4.715-11.963
				H103.129z M118.945,51.269l-3.216,8.167h6.266c3.681,0,5.925-0.644,6.702-2.62l0.914-2.317c0.972-2.47-0.817-3.229-5.79-3.229
				H118.945L118.945,51.269z M123.211,40.442l-2.769,7.028h4.277c4.077,0,6.832-0.685,7.67-2.811l0.585-1.483
				c0.749-1.898-0.613-2.734-4.492-2.734H123.211L123.211,40.442z"/>
		</g>
	</g>
	<ellipse fill="#FFFFFF" stroke="#000000" stroke-width="0.382" cx="127.66" cy="40.824" rx="50.156" ry="23.588"/>
	<ellipse fill="none" stroke="#000000" stroke-width="0.382" cx="127.66" cy="40.824" rx="43.577" ry="20.493"/>
	<path fill="#E2E2E2" stroke="#000000" stroke-width="0.382" d="M127.66,64.412c-24.763,0-45.332-8.441-49.415-19.54
		c-0.738-2.074-0.738-4.049-0.738-4.049s0,7.019,0,8.1c0,13.027,22.454,23.587,50.153,23.587c27.701,0,50.156-10.56,50.156-23.587
		c0-1.123,0-8.1,0-8.1s0,2.036-0.74,4.049C172.994,55.971,152.425,64.412,127.66,64.412z"/>
	<g>
		<path fill="#FFFFFF" stroke="#000000" stroke-width="0.382" d="M109.44,42.157l-1.904,3.806l-22.938-3.435H99.28l1.906-4.178
			l14.626,0.004l4.267-10.828h16.512c11.339,0,15.419,2.015,13.804,6.118l-0.375,0.95c-1.08,2.735-3.94,4.443-9.157,5.318
			l-0.031,0.076c5.525,0.873,7.035,2.849,5.927,5.66l-0.854,2.163c-1.615,4.104-8.154,6.308-19.096,6.308h-17.208l4.715-11.963
			H109.44z M125.256,42.152l-3.216,8.167h6.265c3.681,0,5.925-0.643,6.702-2.619l0.914-2.318c0.972-2.469-0.817-3.229-5.791-3.229
			H125.256L125.256,42.152z M129.523,31.327l-2.769,7.027h4.277c4.077,0,6.832-0.685,7.67-2.811l0.585-1.482
			c0.749-1.899-0.613-2.734-4.492-2.734H129.523L129.523,31.327z"/>
	</g>
</g>
</svg>
