<?xml version="1.0" encoding="utf-8"?>
<!-- Generator: Adobe Illustrator 14.0.0, SVG Export Plug-In . SVG Version: 6.00 Build 43363)  -->
<!DOCTYPE svg PUBLIC "-//W3C//DTD SVG 1.1//EN" "http://www.w3.org/Graphics/SVG/1.1/DTD/svg11.dtd">
<svg version="1.1" id="Calque_1" xmlns="http://www.w3.org/2000/svg" xmlns:xlink="http://www.w3.org/1999/xlink" x="0px" y="0px"
	 width="272.013px" height="73.379px" viewBox="16.567 30.29 272.013 73.379" enable-background="new 16.567 30.29 272.013 73.379"
	 xml:space="preserve">
<g>
	<g>
		<path fill="#FFFFFF" stroke="#FFFFFF" stroke-width="2" stroke-miterlimit="7" d="M54.194,70.351l-2.296,9.762l-27.56-8.805
			h17.607l2.297-10.716l20.636,0.014l5.145-27.762h19.908c13.672,0,18.594,5.164,16.644,15.684l-0.45,2.436
			c-1.302,7.014-4.752,11.395-11.043,13.635l-0.035,0.195c6.66,2.241,8.48,7.304,7.145,14.513l-1.027,5.551
			c-1.95,10.521-9.834,16.17-23.026,16.17h-20.75l5.684-30.676L54.194,70.351L54.194,70.351z M76.268,70.345l-3.88,20.939h7.556
			c4.438,0,7.143-1.656,8.08-6.722l1.102-5.94c1.172-6.328-0.985-8.277-6.981-8.277H76.268z M81.412,42.583l-3.34,18.021h5.157
			c4.917,0,8.239-1.754,9.251-7.209l0.703-3.799c0.902-4.869-0.738-7.014-5.416-7.014L81.412,42.583L81.412,42.583z"/>
	</g>
	<path fill="#FFFFFF" stroke="#FFFFFF" stroke-width="2" d="M128.363,32.861l-9.582,52.585c-0.887,4.869,1.426,6.621,5.615,6.621
		c4.19,0,7.143-1.752,8.029-6.621l9.583-52.585h12.447l-9.457,51.904c-1.987,10.906-9.826,17.139-22.753,17.139
		c-12.928,0-18.494-6.232-16.508-17.139l9.459-51.904H128.363z"/>
	<path fill="#FFFFFF" stroke="#FFFFFF" stroke-width="2" d="M175.565,101.026c-0.397-1.752-0.683-2.823,0.33-8.375l1.951-10.711
		c1.153-6.33-1.054-8.668-7.039-8.668h-4.548l-5.058,27.754h-13.166l12.421-68.166h19.869c13.646,0,18.569,5.162,16.653,15.678
		l-0.977,5.355c-1.277,7.012-4.848,11.492-11.12,13.731l-0.034,0.193c6.174,2.24,7.406,7.305,6.11,14.412l-1.917,10.518
		c-0.604,3.313-0.928,5.746-0.07,8.277L175.565,101.026L175.565,101.026z M171.851,42.599l-3.815,20.938h5.147
		c4.906,0,8.219-1.754,9.213-7.207l1.226-6.719c0.887-4.869-0.758-7.012-5.427-7.012H171.851z"/>
	<path fill="#FFFFFF" stroke="#FFFFFF" stroke-width="2" d="M224.251,32.082c12.807,0,18.255,6.232,16.268,17.139l-0.391,2.143
		h-12.447l0.514-2.824c0.89-4.869-1.17-6.719-5.357-6.719s-6.92,1.85-7.809,6.719c-0.904,4.967,1.055,8.668,8.556,14.803
		c9.574,7.886,12.017,13.535,10.597,21.326c-1.988,10.906-9.826,17.139-22.752,17.139c-12.929,0-18.496-6.232-16.509-17.139
		l0.765-4.188h12.446l-0.887,4.869c-0.888,4.869,1.428,6.621,5.616,6.621s7.142-1.752,8.027-6.621
		c0.905-4.968-1.054-8.666-8.555-14.802c-9.572-7.887-12.016-13.536-10.596-21.327C203.726,38.314,211.444,32.082,224.251,32.082z"
		/>
	<path fill="#FFFFFF" stroke="#FFFFFF" stroke-width="2" d="M246.149,32.861h40.697l-1.775,9.738h-13.766l-10.646,58.427h-13.166
		l10.646-58.427h-13.766L246.149,32.861z"/>
</g>
</svg>
