<?xml version="1.0" encoding="utf-8"?>
<!-- Generator: Adobe Illustrator 14.0.0, SVG Export Plug-In . SVG Version: 6.00 Build 43363)  -->
<!DOCTYPE svg PUBLIC "-//W3C//DTD SVG 1.1//EN" "http://www.w3.org/Graphics/SVG/1.1/DTD/svg11.dtd">
<svg version="1.1" id="Calque_1" xmlns="http://www.w3.org/2000/svg" xmlns:xlink="http://www.w3.org/1999/xlink" x="0px" y="0px"
	 width="511.475px" height="468.494px" viewBox="0 0 511.475 468.494" enable-background="new 0 0 511.475 468.494"
	 xml:space="preserve">
<polygon fill="#D8D8D8" points="196.341,393.392 190.074,388.479 320.043,429.127 392.595,391.674 398.862,396.586 326.312,434.039 
	"/>
<polygon fill="#FFFFFF" stroke="#000000" stroke-width="0.8368" points="392.595,385.441 262.625,344.795 190.074,382.246 
	320.043,422.895 "/>
<polygon fill="#D8D8D8" points="278.959,387.221 272.69,382.308 309.638,393.488 321.651,387.061 327.919,391.974 315.903,398.401 
	"/>
<polygon fill="#E2E2E2" stroke="#000000" stroke-width="0.8368" points="309.638,393.488 321.651,387.061 321.651,293.457 
	309.638,293.457 "/>
<polygon fill="#FFFFFF" stroke="#000000" stroke-width="0.8368" points="272.69,382.308 309.638,393.488 309.638,277.606 
	272.69,277.606 "/>
<path fill="#E2E2E2" stroke="#000000" stroke-width="0.8368" d="M482.89,110.7c-20.151-6.099-271.658-82.216-351.217-106.295
	c0,0-14.797-3-26.061,7.5c6.504-6.422,18.764-2.885,18.764-2.885c79.558,24.079,331.064,100.195,351.215,106.295
	c23.967,7.254,23.967,32.297,23.967,32.297v210.99c0,0,0,11.713-8.052,17.043c3.784-2.65,8.988-9.375,11.249-12.543
	c4.103-5.771,4.103-9.114,4.103-9.114V142.996C506.855,142.996,506.855,117.955,482.89,110.7z"/>
<path fill="#FFFFFF" stroke="#000000" stroke-width="0.4184" d="M124.375,9.021c79.559,24.078,331.064,100.195,351.216,106.295
	c23.967,7.254,23.967,32.296,23.967,32.296v210.991c0,0,0,25.042-23.967,17.789c-20.15-6.099-327.255-99.046-351.216-106.297
	c-23.96-7.253-23.96-32.295-23.96-32.295s0-185.948,0-210.99S124.375,9.021,124.375,9.021z"/>
<polygon fill="#F7F7F7" stroke="#000000" stroke-width="0.4184" points="121.006,247.139 388.651,108.327 482.494,136.49 
	482.494,356.517 "/>
<g>
	<ellipse fill="#FFFFFF" stroke="#000000" stroke-width="0.4184" cx="443.28" cy="132.582" rx="27.436" ry="12.902"/>
	<path fill="none" stroke="#000000" stroke-width="0.4184" d="M443.28,121.373c13.165,0,23.836,5.02,23.836,11.209
		c0,6.19-10.671,11.208-23.836,11.208c-13.161,0-23.833-5.018-23.833-11.208C419.447,126.392,430.119,121.373,443.28,121.373z"/>
	<path fill="#E2E2E2" stroke="#000000" stroke-width="0.4184" d="M443.28,145.484c-13.542,0-24.794-4.617-27.027-10.688
		c-0.402-1.136-0.402-2.216-0.402-2.216s0,3.84,0,4.431c0,7.125,12.28,12.899,27.432,12.899s27.435-5.774,27.435-12.899
		c0-0.614,0-4.431,0-4.431s0,1.113-0.404,2.216C468.077,140.867,456.826,145.484,443.28,145.484z"/>
	<g>
		<path fill="#FFFFFF" stroke="#000000" stroke-width="0.4184" d="M433.316,133.31l-1.041,2.082l-12.548-1.879h8.031l1.041-2.284
			l8.001,0.002l2.333-5.922h9.032c6.202,0,8.434,1.101,7.55,3.346l-0.205,0.52c-0.59,1.497-2.155,2.432-5.009,2.908l-0.017,0.042
			c3.022,0.478,3.849,1.56,3.241,3.098l-0.466,1.182c-0.884,2.244-4.46,3.45-10.445,3.45h-9.411l2.578-6.544H433.316z
			 M441.967,133.308l-1.76,4.468h3.427c2.015,0,3.241-0.353,3.667-1.434l0.5-1.269c0.531-1.351-0.448-1.767-3.169-1.767
			L441.967,133.308L441.967,133.308z M444.301,127.387l-1.515,3.845h2.34c2.229,0,3.734-0.374,4.193-1.537l0.319-0.812
			c0.411-1.039-0.334-1.496-2.456-1.496H444.301L444.301,127.387z"/>
	</g>
</g>
<g>
	<ellipse fill="#FFFFFF" stroke="#000000" stroke-width="0.4184" cx="450.854" cy="234.03" rx="38.01" ry="17.875"/>
	<ellipse fill="none" stroke="#000000" stroke-width="0.4184" cx="450.854" cy="234.029" rx="33.024" ry="15.53"/>
	<path fill="#E2E2E2" stroke="#000000" stroke-width="0.4184" d="M450.854,251.905c-18.766,0-34.353-6.396-37.448-14.808
		c-0.559-1.572-0.559-3.067-0.559-3.067s0,5.318,0,6.137c0,9.871,17.018,17.874,38.007,17.874c20.991,0,38.01-8.003,38.01-17.874
		c0-0.851,0-6.137,0-6.137s0,1.541-0.56,3.067C485.208,245.509,469.623,251.905,450.854,251.905z"/>
	<g>
		<path fill="#FFFFFF" stroke="#000000" stroke-width="0.4184" d="M437.046,235.038l-1.44,2.886l-17.384-2.604h11.125l1.446-3.165
			l11.083,0.003l3.233-8.207h12.512c8.595,0,11.687,1.528,10.462,4.638l-0.283,0.721c-0.817,2.071-2.987,3.367-6.938,4.029
			l-0.023,0.06c4.188,0.662,5.331,2.158,4.492,4.289l-0.648,1.639c-1.225,3.11-6.179,4.779-14.47,4.779H437.17l3.571-9.066
			L437.046,235.038L437.046,235.038z M449.034,235.036l-2.439,6.189h4.749c2.789,0,4.491-0.486,5.079-1.986l0.692-1.757
			c0.735-1.87-0.619-2.446-4.391-2.446H449.034L449.034,235.036z M452.266,226.832l-2.098,5.326h3.241
			c3.09,0,5.178-0.518,5.813-2.131l0.444-1.123c0.567-1.438-0.465-2.072-3.404-2.072H452.266L452.266,226.832z"/>
	</g>
</g>
<g>
	<ellipse fill="#FFFFFF" stroke="#000000" stroke-width="0.4184" cx="315.645" cy="216.846" rx="43.03" ry="20.237"/>
	<ellipse fill="none" stroke="#000000" stroke-width="0.4184" cx="315.645" cy="216.845" rx="37.386" ry="17.582"/>
	<path fill="#E2E2E2" stroke="#000000" stroke-width="0.4184" d="M315.645,237.083c-21.245,0-38.892-7.242-42.396-16.764
		c-0.633-1.78-0.633-3.474-0.633-3.474s0,6.021,0,6.947c0,11.177,19.264,20.236,43.028,20.236s43.03-9.061,43.03-20.236
		c0-0.964,0-6.947,0-6.947s0,1.746-0.635,3.474C354.538,229.841,336.892,237.083,315.645,237.083z"/>
	<g>
		<path fill="#FFFFFF" stroke="#000000" stroke-width="0.4184" d="M300.013,217.988l-1.633,3.268l-19.68-2.947h12.598l1.634-3.584
			l12.549,0.004l3.66-9.29h14.166c9.729,0,13.229,1.728,11.842,5.249l-0.319,0.813c-0.927,2.348-3.381,3.813-7.856,4.563
			l-0.026,0.066c4.74,0.747,6.036,2.443,5.086,4.854l-0.732,1.855c-1.389,3.521-6.996,5.41-16.385,5.41h-14.763l4.044-10.264
			L300.013,217.988L300.013,217.988z M313.583,217.985l-2.762,7.007h5.377c3.156,0,5.082-0.552,5.75-2.247l0.782-1.988
			c0.833-2.118-0.701-2.771-4.969-2.771H313.583L313.583,217.985z M317.243,208.697l-2.375,6.03h3.668
			c3.498,0,5.86-0.587,6.58-2.411l0.502-1.272c0.644-1.629-0.525-2.347-3.853-2.347H317.243L317.243,208.697z"/>
	</g>
</g>
<polygon fill="none" stroke="#000000" stroke-width="0.4184" points="114.45,244.838 482.494,356.517 482.494,136.49 114.45,24.812 
	"/>
<polygon fill="#EDEDED" stroke="#000000" stroke-width="0.4184" points="114.45,24.812 114.45,244.838 121.006,247.139 
	388.651,108.327 "/>
<g>
	<ellipse fill="#FFFFFF" stroke="#000000" stroke-width="0.4184" cx="249.595" cy="75.939" rx="31.462" ry="14.796"/>
	<ellipse fill="none" stroke="#000000" stroke-width="0.4184" cx="249.595" cy="75.938" rx="27.335" ry="12.855"/>
	<path fill="#E2E2E2" stroke="#000000" stroke-width="0.4184" d="M249.595,90.735c-15.532,0-28.434-5.295-30.996-12.257
		c-0.463-1.3-0.463-2.54-0.463-2.54s0,4.402,0,5.081c0,8.17,14.084,14.795,31.459,14.795c17.376,0,31.462-6.625,31.462-14.795
		c0-0.705,0-5.081,0-5.081s0,1.276-0.465,2.54C278.033,85.44,265.13,90.735,249.595,90.735z"/>
	<g>
		<path fill="#FFFFFF" stroke="#000000" stroke-width="0.4184" d="M238.167,76.774l-1.194,2.388l-14.389-2.154h9.21l1.194-2.619
			l9.174,0.002l2.677-6.792h10.357c7.114,0,9.674,1.263,8.659,3.837l-0.234,0.596c-0.676,1.716-2.471,2.788-5.744,3.336l-0.02,0.048
			c3.467,0.547,4.414,1.788,3.719,3.551l-0.536,1.356c-1.015,2.574-5.116,3.957-11.979,3.957h-10.794l2.957-7.505H238.167z
			 M248.088,76.772l-2.018,5.124h3.931c2.309,0,3.717-0.404,4.205-1.646l0.573-1.454c0.608-1.549-0.514-2.024-3.634-2.024H248.088
			L248.088,76.772z M250.765,69.981l-1.736,4.409h2.682c2.558,0,4.285-0.43,4.812-1.764l0.367-0.93
			c0.471-1.191-0.384-1.715-2.816-1.715L250.765,69.981L250.765,69.981z"/>
	</g>
</g>
<path fill="#FFFFFF" stroke="#000000" stroke-width="0.8368" d="M475.591,115.315C455.44,109.217,203.934,33.098,124.375,9.02
	c0,0-23.96-7.252-23.96,17.79s0,210.99,0,210.99s0,25.042,23.96,32.295c23.96,7.251,331.064,100.198,351.216,106.297
	c23.967,7.253,23.967-17.789,23.967-17.789V147.611C499.558,147.611,499.558,122.57,475.591,115.315z M482.494,356.517
	L114.45,244.838V24.812L482.494,136.49V356.517z"/>
<g>
	<path fill="#FFFFFF" stroke="#000000" stroke-width="0.4184" d="M71.486,307.129c34.848,0,63.097,13.285,63.097,29.673
		s-28.249,29.675-63.097,29.675c-34.844,0-63.091-13.287-63.091-29.675S36.642,307.129,71.486,307.129z"/>
	<path fill="none" stroke="#000000" stroke-width="0.4184" d="M71.486,311.021c30.278,0,54.82,11.543,54.82,25.78
		c0,14.238-24.542,25.779-54.82,25.779c-30.272,0-54.816-11.541-54.816-25.779S41.213,311.021,71.486,311.021z"/>
	<path fill="#E2E2E2" stroke="#000000" stroke-width="0.4184" d="M71.486,366.476c-31.15,0-57.025-10.619-62.164-24.582
		c-0.927-2.608-0.927-5.093-0.927-5.093s0,8.829,0,10.188c0,16.389,28.247,29.672,63.091,29.672
		c34.848,0,63.097-13.283,63.097-29.672c0-1.412,0-10.188,0-10.188s0,2.562-0.93,5.093
		C128.516,355.856,102.641,366.476,71.486,366.476z"/>
	<g>
		<path fill="#FFFFFF" stroke="#000000" stroke-width="0.4184" d="M48.566,338.478l-2.395,4.788l-28.856-4.32h18.471l2.397-5.256
			l18.399,0.006l5.367-13.622h20.772c14.265,0,19.397,2.534,17.364,7.696l-0.471,1.194c-1.357,3.44-4.956,5.591-11.518,6.69
			l-0.039,0.097c6.95,1.098,8.85,3.585,7.457,7.119l-1.076,2.723c-2.032,5.163-10.258,7.935-24.022,7.935H48.769l5.93-15.05H48.566z
			 M68.464,338.473l-4.046,10.272h7.881c4.631,0,7.453-0.809,8.432-3.295l1.149-2.917c1.222-3.105-1.028-4.062-7.284-4.062
			L68.464,338.473L68.464,338.473z M73.83,324.854l-3.483,8.841h5.38c5.129,0,8.594-0.86,9.649-3.536l0.736-1.864
			c0.942-2.391-0.77-3.439-5.65-3.439L73.83,324.854L73.83,324.854z"/>
	</g>
</g>
<path fill="#004972" d="M195.807,291.052c-27.418,0-50.194-9.349-54.717-21.637c-0.817-2.297-0.817-4.482-0.817-4.482
	s0,8.771,0,9.968c0,14.424,24.864,26.117,55.534,26.117c30.675,0,55.54-11.693,55.54-26.117c0-1.244,0-9.968,0-9.968
	s0,2.254-0.818,4.482C246.006,281.704,223.231,291.052,195.807,291.052z"/>
<path fill="#00579D" d="M195.807,239.813c30.675,0,55.54,11.693,55.54,26.119c0,14.424-24.865,26.118-55.54,26.118
	c-30.67,0-55.534-11.694-55.534-26.118C140.273,251.508,165.137,239.813,195.807,239.813z"/>
<path opacity="0.7" fill="none" stroke="#012238" stroke-width="0.4184" enable-background="new    " d="M195.807,243.24
	c26.652,0,48.256,10.159,48.256,22.692c0,12.53-21.604,22.691-48.256,22.691c-26.647,0-48.25-10.161-48.25-22.691
	C147.557,253.399,169.16,243.24,195.807,243.24z"/>
<g>
	<path fill="#FFFFFF" d="M175.632,267.407l-2.108,4.217l-25.399-3.805h16.259l2.11-4.627l16.196,0.007l4.724-11.992h18.284
		c12.556,0,17.075,2.231,15.285,6.774l-0.415,1.053c-1.195,3.028-4.363,4.921-10.139,5.89l-0.034,0.084
		c6.117,0.968,7.79,3.155,6.563,6.269l-0.946,2.396c-1.79,4.544-9.03,6.984-21.146,6.984h-19.054l5.219-13.248L175.632,267.407
		L175.632,267.407z M193.147,267.403l-3.562,9.044h6.938c4.076,0,6.561-0.713,7.421-2.901l1.012-2.565
		c1.075-2.735-0.905-3.576-6.411-3.576L193.147,267.403L193.147,267.403z M197.871,255.416l-3.065,7.783h4.735
		c4.516,0,7.565-0.759,8.494-3.113l0.649-1.642c0.829-2.104-0.677-3.028-4.973-3.028H197.871L197.871,255.416z"/>
</g>
<g>
	<ellipse fill="#FFFFFF" stroke="#000000" stroke-width="0.4184" cx="367.708" cy="159.574" rx="33.641" ry="15.82"/>
	<path fill="none" stroke="#000000" stroke-width="0.4184" d="M367.708,145.829c16.143,0,29.229,6.154,29.229,13.744
		c0,7.591-13.086,13.744-29.229,13.744c-16.139,0-29.225-6.153-29.225-13.744C338.483,151.983,351.569,145.829,367.708,145.829z"/>
	<path fill="#E2E2E2" stroke="#000000" stroke-width="0.4184" d="M367.708,175.395c-16.605,0-30.4-5.662-33.141-13.105
		c-0.495-1.391-0.495-2.716-0.495-2.716s0,4.707,0,5.432c0,8.737,15.059,15.819,33.636,15.819c18.58,0,33.641-7.082,33.641-15.819
		c0-0.753,0-5.432,0-5.432s0,1.366-0.498,2.716C398.112,169.732,384.317,175.395,367.708,175.395z"/>
	<g>
		<path fill="#FFFFFF" stroke="#000000" stroke-width="0.4184" d="M355.489,160.469l-1.277,2.553l-15.384-2.305h9.846l1.279-2.802
			l9.809,0.003l2.862-7.263h11.074c7.604,0,10.342,1.352,9.258,4.104l-0.251,0.637c-0.724,1.834-2.644,2.98-6.142,3.566l-0.02,0.052
			c3.705,0.585,4.718,1.912,3.975,3.797l-0.574,1.45c-1.082,2.753-5.469,4.229-12.808,4.229h-11.54l3.162-8.022H355.489z
			 M366.097,160.465l-2.158,5.479h4.203c2.469,0,3.975-0.431,4.495-1.757l0.613-1.556c0.651-1.655-0.548-2.166-3.884-2.166H366.097
			L366.097,160.465z M368.958,153.204l-1.857,4.714h2.868c2.734,0,4.582-0.459,5.145-1.885l0.393-0.995
			c0.502-1.272-0.411-1.834-3.012-1.834H368.958L368.958,153.204z"/>
	</g>
</g>
<polygon fill="#E2E2E2" stroke="#000000" stroke-width="0.8368" points="190.074,388.479 190.074,382.246 320.043,422.895 
	392.595,385.441 392.595,391.674 320.043,429.127 "/>
<ellipse fill="#D8D8D8" cx="287.772" cy="68.472" rx="2.789" ry="3.766"/>
<ellipse fill="#D8D8D8" cx="296.699" cy="70.843" rx="2.788" ry="3.766"/>
<ellipse fill="#D8D8D8" cx="313.155" cy="76.003" rx="1.832" ry="2.475"/>
<g>
	<ellipse fill="#FFFFFF" stroke="#000000" stroke-width="0.4184" cx="349.263" cy="298.007" rx="43.029" ry="20.237"/>
	<ellipse fill="none" stroke="#000000" stroke-width="0.4184" cx="349.263" cy="298.007" rx="37.385" ry="17.582"/>
	<path fill="#E2E2E2" stroke="#000000" stroke-width="0.4184" d="M349.263,318.244c-21.246,0-38.892-7.241-42.396-16.764
		c-0.633-1.779-0.633-3.474-0.633-3.474s0,6.021,0,6.947c0,11.177,19.265,20.235,43.029,20.235c23.764,0,43.029-9.06,43.029-20.235
		c0-0.963,0-6.947,0-6.947s0,1.746-0.633,3.474C388.153,311.003,370.509,318.244,349.263,318.244z"/>
	<g>
		<path fill="#FFFFFF" stroke="#000000" stroke-width="0.4184" d="M333.63,299.15l-1.634,3.266l-19.679-2.946h12.597l1.634-3.583
			l12.549,0.003l3.659-9.291h14.166c9.729,0,13.229,1.729,11.843,5.25l-0.322,0.814c-0.926,2.346-3.379,3.813-7.854,4.563
			l-0.026,0.065c4.74,0.749,6.037,2.443,5.086,4.856l-0.733,1.854c-1.388,3.521-6.995,5.411-16.384,5.411h-14.762l4.043-10.263
			L333.63,299.15L333.63,299.15z M347.2,299.146l-2.762,7.007h5.377c3.156,0,5.082-0.552,5.75-2.247l0.783-1.989
			c0.832-2.117-0.703-2.771-4.97-2.771H347.2L347.2,299.146z M350.86,289.859l-2.375,6.029h3.668c3.5,0,5.861-0.588,6.582-2.411
			l0.502-1.271c0.643-1.63-0.525-2.347-3.854-2.347H350.86L350.86,289.859z"/>
	</g>
</g>
<g>
	<ellipse fill="#FFFFFF" stroke="#000000" stroke-width="0.4184" cx="222.584" cy="170.248" rx="38.009" ry="17.875"/>
	<ellipse fill="none" stroke="#000000" stroke-width="0.4184" cx="222.584" cy="170.247" rx="33.023" ry="15.53"/>
	<path fill="#E2E2E2" stroke="#000000" stroke-width="0.4184" d="M222.584,188.124c-18.767,0-34.353-6.396-37.45-14.808
		c-0.558-1.572-0.558-3.067-0.558-3.067s0,5.318,0,6.138c0,9.871,17.017,17.875,38.007,17.875c20.99,0,38.01-8.004,38.01-17.875
		c0-0.851,0-6.138,0-6.138s0,1.542-0.561,3.067C256.937,181.727,241.351,188.124,222.584,188.124z"/>
	<g>
		<path fill="#FFFFFF" stroke="#000000" stroke-width="0.4184" d="M208.775,171.259l-1.442,2.886l-17.383-2.604h11.125l1.446-3.165
			l11.083,0.004l3.234-8.206h12.512c8.593,0,11.686,1.526,10.46,4.637l-0.283,0.72c-0.817,2.072-2.986,3.367-6.939,4.03
			l-0.023,0.059c4.187,0.662,5.331,2.159,4.492,4.289l-0.648,1.64c-1.225,3.109-6.179,4.779-14.471,4.779h-13.04l3.572-9.065h-3.695
			V171.259z M220.762,171.256l-2.439,6.188h4.749c2.789,0,4.491-0.486,5.08-1.985l0.692-1.757c0.736-1.871-0.62-2.446-4.39-2.446
			H220.762L220.762,171.256z M223.995,163.052l-2.097,5.326h3.241c3.09,0,5.177-0.519,5.813-2.131l0.443-1.123
			c0.568-1.438-0.464-2.072-3.403-2.072H223.995L223.995,163.052z"/>
	</g>
</g>
<g>
	<ellipse fill="#FFFFFF" stroke="#000000" stroke-width="0.4184" cx="88.297" cy="213.086" rx="38.009" ry="17.876"/>
	<ellipse fill="none" stroke="#000000" stroke-width="0.4184" cx="88.297" cy="213.084" rx="33.024" ry="15.53"/>
	<path fill="#E2E2E2" stroke="#000000" stroke-width="0.4184" d="M88.297,230.962c-18.766,0-34.353-6.396-37.449-14.809
		c-0.558-1.572-0.558-3.067-0.558-3.067s0,5.318,0,6.138c0,9.871,17.017,17.875,38.007,17.875c20.99,0,38.009-8.004,38.009-17.875
		c0-0.851,0-6.138,0-6.138s0,1.542-0.559,3.067C122.65,224.564,107.065,230.962,88.297,230.962z"/>
	<g>
		<path fill="#FFFFFF" stroke="#000000" stroke-width="0.4184" d="M74.489,214.095l-1.442,2.886l-17.383-2.604h11.125l1.446-3.165
			l11.083,0.003l3.233-8.205h12.513c8.593,0,11.686,1.526,10.459,4.637l-0.283,0.72c-0.817,2.072-2.986,3.367-6.938,4.03
			l-0.023,0.059c4.187,0.662,5.331,2.159,4.493,4.289l-0.649,1.639c-1.225,3.11-6.179,4.779-14.471,4.779h-13.04l3.572-9.064h-3.695
			V214.095z M86.476,214.092l-2.439,6.189h4.749c2.79,0,4.492-0.486,5.08-1.985l0.692-1.757c0.736-1.871-0.619-2.447-4.389-2.447
			H86.476L86.476,214.092z M89.708,205.888l-2.098,5.325h3.241c3.089,0,5.177-0.518,5.813-2.13l0.443-1.123
			c0.568-1.438-0.464-2.072-3.403-2.072H89.708L89.708,205.888z"/>
	</g>
</g>
<g>
	<path fill="#FFFFFF" stroke="#000000" stroke-width="0.4184" d="M126.303,168.079c30.675,0,55.54,11.695,55.54,26.12
		c0,14.424-24.865,26.119-55.54,26.119c-30.67,0-55.534-11.695-55.534-26.119C70.769,179.774,95.633,168.079,126.303,168.079z"/>
	<path fill="none" stroke="#000000" stroke-width="0.4184" d="M126.303,171.507c26.652,0,48.255,10.159,48.255,22.692
		c0,12.531-21.604,22.691-48.255,22.691c-26.647,0-48.25-10.16-48.25-22.691C78.053,181.666,99.656,171.507,126.303,171.507z"/>
	<path fill="#E2E2E2" stroke="#000000" stroke-width="0.4184" d="M126.303,220.318c-27.419,0-50.195-9.349-54.717-21.637
		c-0.817-2.298-0.817-4.482-0.817-4.482s0,7.771,0,8.968c0,14.424,24.864,26.117,55.534,26.117c30.675,0,55.54-11.693,55.54-26.117
		c0-1.244,0-8.968,0-8.968s0,2.253-0.818,4.482C176.503,210.97,153.728,220.318,126.303,220.318z"/>
	<g>
		<path fill="#FFFFFF" stroke="#000000" stroke-width="0.4184" d="M106.128,195.673l-2.108,4.218l-25.399-3.806H94.88l2.11-4.626
			l16.196,0.006l4.724-11.99h18.284c12.556,0,17.075,2.229,15.285,6.773l-0.415,1.053c-1.194,3.028-4.363,4.922-10.139,5.891
			l-0.034,0.084c6.117,0.966,7.79,3.154,6.563,6.268l-0.946,2.396c-1.79,4.544-9.03,6.982-21.145,6.982h-19.055l5.219-13.248
			L106.128,195.673L106.128,195.673z M123.644,195.67l-3.562,9.044h6.938c4.076,0,6.561-0.713,7.422-2.901l1.012-2.566
			c1.075-2.733-0.906-3.575-6.411-3.575L123.644,195.67L123.644,195.67z M128.367,183.683l-3.065,7.781h4.736
			c4.516,0,7.565-0.758,8.493-3.112l0.649-1.643c0.829-2.103-0.677-3.026-4.973-3.026H128.367L128.367,183.683z"/>
	</g>
</g>
<g>
	<ellipse fill="#FFFFFF" stroke="#000000" stroke-width="0.4184" cx="321.72" cy="141.215" rx="31.463" ry="14.797"/>
	<ellipse fill="none" stroke="#000000" stroke-width="0.4184" cx="321.72" cy="141.214" rx="27.336" ry="12.855"/>
	<path fill="#E2E2E2" stroke="#000000" stroke-width="0.4184" d="M321.72,156.012c-15.531,0-28.435-5.297-30.996-12.259
		c-0.463-1.3-0.463-2.539-0.463-2.539s0,4.402,0,5.08c0,8.171,14.084,14.795,31.459,14.795c17.377,0,31.463-6.624,31.463-14.795
		c0-0.705,0-5.08,0-5.08s0,1.276-0.464,2.539C350.157,150.716,337.254,156.012,321.72,156.012z"/>
	<g>
		<path fill="#FFFFFF" stroke="#000000" stroke-width="0.4184" d="M310.291,142.052l-1.192,2.388l-14.39-2.155h9.21l1.195-2.62
			l9.174,0.003l2.677-6.792h10.356c7.115,0,9.674,1.265,8.66,3.837l-0.235,0.597c-0.677,1.716-2.472,2.788-5.744,3.336l-0.019,0.049
			c3.466,0.547,4.414,1.787,3.718,3.551l-0.536,1.356c-1.014,2.572-5.116,3.957-11.979,3.957h-10.795l2.957-7.505L310.291,142.052
			L310.291,142.052z M320.212,142.049l-2.018,5.123h3.93c2.311,0,3.717-0.403,4.206-1.645l0.573-1.453
			c0.609-1.549-0.514-2.025-3.633-2.025H320.212L320.212,142.049z M322.89,135.257l-1.736,4.409h2.683
			c2.558,0,4.284-0.43,4.812-1.764l0.365-0.93c0.471-1.191-0.384-1.717-2.815-1.717L322.89,135.257L322.89,135.257z"/>
	</g>
</g>
<g>
	<ellipse fill="#FFFFFF" stroke="#000000" stroke-width="0.4184" cx="245.587" cy="380.369" rx="45.77" ry="21.524"/>
	<path fill="none" stroke="#000000" stroke-width="0.4184" d="M245.587,361.67c21.963,0,39.764,8.37,39.764,18.698
		c0,10.327-17.801,18.698-39.764,18.698c-21.958,0-39.759-8.371-39.759-18.698C205.828,370.04,223.629,361.67,245.587,361.67z"/>
	<path fill="#E2E2E2" stroke="#000000" stroke-width="0.4184" d="M245.587,401.894c-22.594,0-41.363-7.703-45.09-17.831
		c-0.674-1.893-0.674-3.694-0.674-3.694s0,6.405,0,7.392c0,11.886,20.489,21.521,45.764,21.521c25.278,0,45.77-9.637,45.77-21.521
		c0-1.026,0-7.392,0-7.392s0,1.857-0.676,3.694C286.955,394.19,268.187,401.894,245.587,401.894z"/>
	<g>
		<path fill="#FFFFFF" stroke="#000000" stroke-width="0.4184" d="M228.962,381.585l-1.737,3.475l-20.931-3.135h13.398l1.738-3.813
			l13.346,0.003l3.894-9.879h15.066c10.349,0,14.072,1.838,12.597,5.581l-0.342,0.866c-0.984,2.496-3.596,4.056-8.356,4.853
			l-0.026,0.071c5.041,0.795,6.42,2.6,5.408,5.164l-0.779,1.974c-1.475,3.744-7.442,5.757-17.426,5.757h-15.702l4.301-10.917
			H228.962z M243.396,381.581l-2.936,7.453h5.718c3.359,0,5.407-0.587,6.116-2.392l0.833-2.115c0.886-2.252-0.748-2.946-5.285-2.946
			H243.396L243.396,381.581z M247.289,371.702l-2.525,6.413h3.901c3.722,0,6.233-0.624,7-2.563l0.532-1.354
			c0.685-1.732-0.558-2.495-4.098-2.495H247.289L247.289,371.702z"/>
	</g>
</g>
</svg>
