<?xml version="1.0" encoding="utf-8"?>
<!-- Generator: Adobe Illustrator 14.0.0, SVG Export Plug-In . SVG Version: 6.00 Build 43363)  -->
<!DOCTYPE svg PUBLIC "-//W3C//DTD SVG 1.1//EN" "http://www.w3.org/Graphics/SVG/1.1/DTD/svg11.dtd">
<svg version="1.1" id="Calque_1" xmlns="http://www.w3.org/2000/svg" xmlns:xlink="http://www.w3.org/1999/xlink" x="0px" y="0px"
	 width="556.248px" height="345px" viewBox="0 0 556.248 345" enable-background="new 0 0 556.248 345" xml:space="preserve">
<g>
	<polygon fill="#D8D8D8" points="356.349,69.395 360.826,78.27 395.556,96.015 430.287,78.27 425.809,69.396 391.079,87.142 	"/>
</g>
<g>
	<polygon fill="#FFFFFF" stroke="#000000" stroke-width="0.5" points="356.349,69.395 356.349,25.951 391.079,8.205 425.809,25.951 
		425.809,69.395 391.079,87.142 	"/>
	<g>
		<polyline fill="#FFFFFF" stroke="#000000" stroke-width="0.5" points="356.349,26.268 391.079,44.015 425.809,26.268 		"/>
		<line fill="none" stroke="#000000" stroke-width="0.5" x1="391.079" y1="44.015" x2="391.079" y2="87.142"/>
	</g>
</g>
<g>
	<polygon fill="#E2E2E2" stroke="#000000" stroke-width="0.5" points="391.079,87.142 391.079,44.015 425.809,26.268 
		425.809,69.395 	"/>
	<polygon fill="#F7F7F7" stroke="#000000" stroke-width="0.5" points="391.079,87.142 391.079,44.015 356.349,26.268 
		356.349,69.395 	"/>
</g>
<path fill="#D8D8D8" d="M146.545,92.602v-3.866c-0.88-0.294-7.673,0.058-9.826-0.667l-1.172-0.393l-11.446,5.099v3.866
	c0,0,0,0,1.171,0.394c0.881,0.294,6.504,2.182,8.657,2.903l1.17,0.394c0.986-0.665,10.449-7.057,10.449-7.057L146.545,92.602z"/>
<path fill="#D8D8D8" d="M220.214,273.738c0.003-0.422-0.002-9.043-0.002-9.043l-3.424,2.314
	c-4.206,2.839-19.746,13.333-21.803,14.721c-2.382,1.608-5.208,0.662-5.208,0.662l-17.476-5.865
	c-2.253-0.702-2.001-1.506-2.001-1.506s-0.009,8.677,0,9.032c0.02,0.828,1.4,1.289,1.4,1.289h-0.002l18.078,6.068
	c0,0,2.826,0.948,5.208-0.661c2.382-1.605,24.29-15.682,24.29-15.682S220.205,274.44,220.214,273.738z"/>
<path fill="#D8D8D8" d="M177.251,81.613c0.003-0.422-3.426-6.727-3.426-6.727l0,0c-4.206,2.839-19.745,13.331-21.803,14.722
	c-2.382,1.607-5.208,0.659-5.208,0.659l-17.476-5.865c-2.253-0.703-2.001-1.506-2.001-1.506s-0.009,8.677,0,9.034
	c0.02,0.826,1.4,1.29,1.4,1.29h-0.002l18.078,6.065c0,0,2.826,0.948,5.208-0.659s24.29-15.684,24.29-15.684
	S177.242,82.316,177.251,81.613z"/>
<path fill="#D8D8D8" d="M155.255,169.158C169.67,159.428,270.22,91.53,270.22,91.53c34.347-28.009-7.917-40.619-7.917-40.619h0.003
	l-1.113-0.548l0,0l-12.966-4.351c0,0-30.522-12.728-57.438,4.903c-10.167,6.662-27.546,18.601-27.546,18.601
	c-2.878,5.394,0,4.697,0,4.697s17.289-12.077,27.546-18.602c27.588-17.546,57.438-4.902,57.438-4.902l12.966,4.35l0,0l0,0l0,0
	c0,0,35.968,11.085,6.289,33.937c0,0-106.608,71.985-121.023,81.719c-14.414,9.731-114.964,77.628-114.964,77.628
	c-34.348,28.011,7.915,40.621,7.915,40.621h-0.001l39.372,12.892h-0.002l12.968,4.353c0,0,35.459,14.775,62.374-2.854
	c10.166-6.662,27.545-18.601,27.545-18.601c2.879-5.394,0-4.697,0-4.697s-17.288,12.077-27.545,18.601
	c-27.588,17.545-62.374,2.854-62.374,2.854l-12.968-4.353h0.002l-38.259-12.347l0,0c0,0-35.969-11.082-6.29-33.933
	C34.231,250.879,140.839,178.893,155.255,169.158z"/>
<path fill="#FFFFFF" stroke="#000000" stroke-width="0.5" d="M175.81,78.349c-0.037-0.817,0-9.034,0-9.034s0.162,0.483-0.953,1.283
	c-1.114,0.8-6.557,4.427-6.557,4.427c-6.946,4.689-17.126,11.563-18.674,12.608l-2.826-0.948
	c-3.038-1.019-16.904-5.672-20.903-7.015v9.034c0,0,0,0,2.826,0.949c2.127,0.713,12.877,4.318,18.077,6.064l2.826,0.948
	c2.383-1.609,25.23-17.035,25.23-17.035C175.586,79.14,175.826,78.707,175.81,78.349z"/>
<path fill="#D8D8D8" d="M527.997,164.422c0.038-3.515-4.359-6.947-4.359-6.947c0.013,7.407-16.53,17.174-16.53,17.174
	c-35.033,23.656-164.531,111.1-181.669,122.67c-19.849,13.402-43.406,5.497-43.406,5.497l-145.615-48.867
	c-18.776-5.856-16.673-12.555-16.673-12.555s-1.138,2.193,0.342,7.877c3.71,5.316,15.678,9.751,15.678,9.751h-0.003l150.627,50.546
	c0,0,23.559,7.905,43.406-5.497c19.848-13.398,190.39-128.559,190.39-128.559S527.936,170.277,527.997,164.422z"/>
<path fill="#FFFFFF" stroke="#000000" stroke-width="0.5" d="M282.031,273.938l-150.626-50.546h0.002c0,0-23.56-7.905-3.714-21.308
	c0,0,170.544-115.155,190.392-128.559c19.848-13.399,43.405-5.495,43.405-5.495c43.339,14.542,132.904,44.6,150.623,50.543
	c23.562,7.908,3.714,21.309,3.714,21.309s-170.543,115.159-190.391,128.56C305.59,281.844,282.031,273.938,282.031,273.938z"/>
<path fill="#00579D" stroke="#002F4F" stroke-width="0.5" d="M222.848,235.502l-6.341-2.128h0.001c0,0-1.797-0.604-0.283-1.624
	c0,0,13.001-8.778,14.514-9.803c1.514-1.021,3.311-0.418,3.311-0.418c3.304,1.107,4.988,1.674,6.339,2.129
	c1.796,0.603,0.283,1.625,0.283,1.625s-13.002,8.778-14.514,9.799C224.643,236.104,222.848,235.502,222.848,235.502z"/>
<path fill="#D8D8D8" d="M291.399,196.354c-14.959,0-27.381-5.809-29.849-13.444c-0.445-1.428-0.445-2.786-0.445-2.786
	s0,4.83,0,5.572c0,8.963,13.562,16.229,30.293,16.229c16.729,0,30.293-7.267,30.293-16.229c0-0.772,0-5.572,0-5.572
	s0,1.4-0.446,2.786C318.781,190.545,306.358,196.354,291.399,196.354z"/>
<path fill="#D8D8D8" d="M327.752,143.757c-14.957,0-27.38-5.81-29.849-13.445c-0.443-1.427-0.443-2.785-0.443-2.785s0,4.829,0,5.572
	c0,8.964,13.563,16.23,30.292,16.23c16.731,0,30.296-7.268,30.296-16.23c0-0.771,0-5.572,0-5.572s0,1.399-0.447,2.785
	C355.135,137.948,342.712,143.757,327.752,143.757z"/>
<path fill="#D8D8D8" d="M440.999,149.775c-14.958,0-27.382-5.808-29.85-13.443c-0.444-1.429-0.444-2.787-0.444-2.787s0,4.83,0,5.573
	c0,8.964,13.563,16.229,30.294,16.229s30.294-7.265,30.294-16.229c0-0.772,0-5.573,0-5.573s0,1.4-0.446,2.787
	C468.382,143.968,455.957,149.775,440.999,149.775z"/>
<path fill="#D8D8D8" d="M458.248,290.998c-14.958,0-27.382-5.809-29.849-13.443c-0.445-1.427-0.445-2.785-0.445-2.785
	s0,4.827,0,5.573c0,8.963,13.563,16.229,30.294,16.229c16.73,0,30.294-7.267,30.294-16.229c0-0.774,0-5.573,0-5.573
	s0,1.399-0.446,2.785C485.629,285.19,473.206,290.998,458.248,290.998z"/>
<path fill="#E2E2E2" stroke="#000000" stroke-width="0.5" d="M523.644,157.669c0.036-3.514-0.006-29.071-0.006-29.071
	c0.013,7.408-16.53,17.176-16.53,17.176c-35.033,23.655-164.531,111.098-181.669,122.669c-19.849,13.401-43.406,5.496-43.406,5.496
	l-145.615-48.865c-18.776-5.856-16.673-12.557-16.673-12.557s-0.07,26.025,0.002,29.001c0.166,6.895,11.662,10.752,11.662,10.752
	h-0.002l150.626,50.546c0,0,23.559,7.905,43.406-5.497c19.847-13.399,190.39-128.559,190.39-128.559S523.58,163.525,523.644,157.669
	z"/>
<g>
	<ellipse fill="#FFFFFF" stroke="#000000" stroke-width="0.5" cx="325.558" cy="120.895" rx="32.727" ry="17.533"/>
	<ellipse fill="none" stroke="#000000" stroke-width="0.5" cx="325.558" cy="120.895" rx="28.434" ry="15.232"/>
	<path fill="#E2E2E2" stroke="#000000" stroke-width="0.5" d="M325.558,138.428c-16.158,0-29.578-6.274-32.244-14.524
		c-0.479-1.54-0.479-3.01-0.479-3.01s0,5.217,0,6.021c0,9.684,14.651,17.532,32.726,17.532c18.073,0,32.726-7.85,32.726-17.532
		c0-0.834,0-6.021,0-6.021s0,1.516-0.481,3.01C355.138,132.153,341.716,138.428,325.558,138.428z"/>
	<g>
		<path fill="#FFFFFF" stroke="#000000" stroke-width="0.5" d="M313.669,121.885l-1.242,2.83l-14.967-2.553h9.581l1.241-3.106
			l9.544,0.003l2.784-8.048h10.771c7.398,0,10.063,1.497,9.006,4.548l-0.242,0.705c-0.703,2.033-2.569,3.304-5.976,3.954
			l-0.019,0.057c3.604,0.647,4.59,2.118,3.865,4.207l-0.557,1.608c-1.057,3.051-5.32,4.688-12.461,4.688h-11.229l3.076-8.893
			H313.669z M323.989,121.883l-2.102,6.07h4.09c2.401,0,3.865-0.479,4.373-1.947l0.596-1.725c0.636-1.835-0.533-2.398-3.777-2.398
			H323.989L323.989,121.883z M326.772,113.836l-1.807,5.223h2.79c2.659,0,4.457-0.509,5.004-2.088l0.384-1.103
			c0.488-1.41-0.401-2.032-2.932-2.032H326.772L326.772,113.836z"/>
	</g>
</g>
<g>
	<ellipse fill="#FFFFFF" stroke="#000000" stroke-width="0.5" cx="325.558" cy="114.876" rx="32.727" ry="17.531"/>
	<ellipse fill="none" stroke="#000000" stroke-width="0.5" cx="325.558" cy="114.875" rx="28.434" ry="15.232"/>
	<path fill="#E2E2E2" stroke="#000000" stroke-width="0.5" d="M325.558,132.406c-16.158,0-29.578-6.271-32.244-14.521
		c-0.479-1.543-0.479-3.01-0.479-3.01s0,5.216,0,6.021c0,9.684,14.651,17.531,32.726,17.531c18.073,0,32.726-7.849,32.726-17.531
		c0-0.836,0-6.021,0-6.021s0,1.512-0.481,3.01C355.138,126.135,341.716,132.406,325.558,132.406z"/>
	<g>
		<path fill="#FFFFFF" stroke="#000000" stroke-width="0.5" d="M313.669,115.865l-1.242,2.831l-14.967-2.555h9.581l1.241-3.104
			l9.544,0.005l2.784-8.05h10.771c7.398,0,10.063,1.496,9.006,4.548l-0.242,0.705c-0.703,2.032-2.569,3.304-5.976,3.951
			l-0.019,0.061c3.604,0.646,4.59,2.117,3.865,4.206l-0.557,1.606c-1.057,3.051-5.32,4.688-12.461,4.688h-11.229l3.076-8.893
			H313.669z M323.989,115.862l-2.102,6.071h4.09c2.401,0,3.865-0.478,4.373-1.947l0.596-1.723c0.636-1.836-0.533-2.401-3.777-2.401
			H323.989L323.989,115.862z M326.772,107.815l-1.807,5.228h2.79c2.659,0,4.457-0.509,5.004-2.091l0.384-1.103
			c0.488-1.412-0.401-2.034-2.932-2.034H326.772L326.772,107.815z"/>
	</g>
</g>
<path fill="#FFFFFF" stroke="#000000" stroke-width="0.5" d="M186.28,277.914l-18.077-6.067l0,0c0,0-2.826-0.946-0.446-2.556
	c0,0,22.85-15.429,25.23-17.036l2.828,0.95c5.2,1.742,15.95,5.35,18.075,6.063c2.828,0.948,2.828,0.948,2.828,0.948
	s-22.85,15.428-25.23,17.036C189.108,278.861,186.28,277.914,186.28,277.914z"/>
<path fill="#FFFFFF" stroke="#000000" stroke-width="0.5" d="M216.721,269.261c0.002-0.421-0.002-9.043-0.002-9.043l-3.426,2.315
	c-4.204,2.839-19.744,13.333-21.801,14.721c-2.383,1.607-5.209,0.66-5.209,0.66l-17.475-5.863c-2.254-0.704-2.001-1.508-2.001-1.508
	s-0.009,8.678,0,9.034c0.02,0.827,1.398,1.292,1.398,1.292l0,0l18.077,6.063c0,0,2.826,0.947,5.209-0.661
	c2.382-1.607,24.29-15.681,24.29-15.681S216.712,269.964,216.721,269.261z"/>
<path fill="#FFFFFF" stroke="#000000" stroke-width="0.5" d="M155.255,167.406c14.415-9.731,114.965-77.628,114.965-77.628
	c34.347-28.01-7.917-40.62-7.917-40.62h0.003l-1.113-0.546l0,0l-12.966-4.354c0,0-30.522-12.728-57.438,4.905
	c-10.167,6.659-27.546,18.601-27.546,18.601c-2.878,5.391,0,4.695,0,4.695s17.289-12.076,27.546-18.601
	c27.588-17.545,57.438-4.902,57.438-4.902l12.966,4.353l0,0l0,0l0,0c0,0,35.968,11.082,6.289,33.934
	c0,0-106.608,71.985-121.023,81.72c-14.414,9.73-114.964,77.628-114.964,77.628c-34.348,28.009,7.915,40.62,7.915,40.62h-0.001
	l39.372,12.891h-0.002l12.968,4.353c0,0,30.521,12.729,57.437-4.902c10.167-6.662,27.545-18.6,27.545-18.6
	c2.88-5.394,0-4.698,0-4.698s-17.288,12.077-27.545,18.601c-27.588,17.546-57.437,4.903-57.437,4.903l-12.968-4.35h0.002
	l-38.259-12.347l0,0c0,0-35.969-11.084-6.29-33.936C34.231,249.126,140.839,177.14,155.255,167.406z"/>
<path fill="#FFFFFF" stroke="#000000" stroke-width="0.5" d="M156.334,61.975l18.077,6.066h-0.001c0,0,2.828,0.945,0.446,2.557
	c0,0-22.848,15.427-25.23,17.035l-2.826-0.948c-5.2-1.745-15.95-5.352-18.077-6.065c-2.826-0.948-2.826-0.948-2.826-0.948
	s22.848-15.428,25.229-17.036C153.507,61.026,156.334,61.975,156.334,61.975z"/>
<line fill="none" stroke="#000000" stroke-width="0.5" x1="175.81" y1="69.314" x2="175.81" y2="78.349"/>
<line fill="none" stroke="#000000" stroke-width="0.5" x1="149.626" y1="87.633" x2="149.626" y2="96.667"/>
<path fill="#FFFFFF" stroke="#000000" stroke-width="0.5" d="M143.197,92.149v-3.862c-0.88-0.298-7.673,0.055-9.828-0.667
	l-1.17-0.395l-11.447,5.101v3.862c0,0,0,0,1.171,0.394c0.882,0.297,6.503,2.182,8.656,2.904l1.172,0.395
	c0.986-0.667,10.449-7.055,10.449-7.055L143.197,92.149z"/>
<path fill="#FFFFFF" stroke="#000000" stroke-width="0.5" d="M121.143,92.861v3.069c0,0,0,0,1.17,0.394
	c0.881,0.295,5.123,1.756,7.276,2.479l1.749,0.625v-3.07c0,0-0.577-0.23-1.749-0.624c-0.88-0.294-5.123-1.755-7.276-2.479
	L121.143,92.861z"/>
<path fill="#FFFFFF" stroke="#000000" stroke-width="0.5" d="M143.197,88.286c0,0,0,0-1.171-0.395
	c-0.879-0.296-6.502-2.182-8.657-2.905l-1.17-0.393l-0.998,0.674c-0.986,0.666-10.449,7.058-10.449,7.058s0,0,1.171,0.393
	c0.882,0.294,6.503,2.182,8.656,2.904l1.172,0.393c0.986-0.666,10.449-7.056,10.449-7.056L143.197,88.286z"/>
<path fill="#FFFFFF" stroke="#000000" stroke-width="0.5" d="M127.329,92.298c0,0,0,0-0.325-0.108
	c-0.243-0.082-1.478-0.498-2.074-0.697l-0.325-0.107l-0.276,0.187c-0.274,0.185-0.846,0.569-0.846,0.569s0,0,0.325,0.108
	c0.244,0.082,1.479,0.498,2.076,0.697l0.325,0.107c0.272-0.184,0.844-0.569,0.844-0.569L127.329,92.298z"/>
<path fill="#FFFFFF" stroke="#000000" stroke-width="0.5" d="M132.162,93.862c0,0,0,0-0.325-0.106
	c-0.244-0.082-1.479-0.497-2.077-0.698l-0.325-0.106l-0.275,0.187c-0.272,0.184-0.844,0.569-0.844,0.569s0,0,0.325,0.108
	c0.243,0.082,1.479,0.497,2.074,0.696l0.325,0.109c0.274-0.186,0.846-0.57,0.846-0.57L132.162,93.862z"/>
<path fill="#FFFFFF" stroke="#000000" stroke-width="0.5" d="M121.934,92.709"/>
<line fill="none" stroke="#000000" stroke-width="0.5" x1="131.751" y1="96.015" x2="131.751" y2="99.88"/>
<g>
	<ellipse fill="#FFFFFF" stroke="#000000" stroke-width="0.5" cx="328.616" cy="108.001" rx="32.726" ry="17.533"/>
	<ellipse fill="none" stroke="#000000" stroke-width="0.5" cx="328.616" cy="108.001" rx="28.433" ry="15.232"/>
	<path fill="#E2E2E2" stroke="#000000" stroke-width="0.5" d="M328.616,125.534c-16.158,0-29.578-6.274-32.244-14.523
		c-0.48-1.542-0.48-3.009-0.48-3.009s0,5.215,0,6.02c0,9.684,14.651,17.531,32.726,17.531c18.071,0,32.726-7.849,32.726-17.531
		c0-0.836,0-6.02,0-6.02s0,1.513-0.482,3.009C358.196,119.26,344.772,125.534,328.616,125.534z"/>
	<g>
		<path fill="#FFFFFF" stroke="#000000" stroke-width="0.5" d="M316.728,108.99l-1.242,2.831l-14.967-2.554h9.582l1.239-3.105
			l9.545,0.005l2.783-8.048h10.774c7.396,0,10.061,1.494,9.006,4.547l-0.243,0.704c-0.705,2.032-2.57,3.304-5.976,3.953l-0.02,0.059
			c3.604,0.646,4.59,2.118,3.866,4.207l-0.558,1.605c-1.055,3.053-5.32,4.688-12.461,4.688h-11.227l3.074-8.893H316.728z
			 M327.047,108.988l-2.101,6.071h4.091c2.399,0,3.866-0.478,4.372-1.947l0.597-1.724c0.634-1.835-0.534-2.4-3.778-2.4H327.047
			L327.047,108.988z M329.831,100.942l-1.807,5.226h2.789c2.662,0,4.457-0.509,5.004-2.091l0.386-1.103
			c0.487-1.41-0.401-2.032-2.931-2.032H329.831L329.831,100.942z"/>
	</g>
</g>
<g>
	<ellipse fill="#FFFFFF" stroke="#000000" stroke-width="0.5" cx="322.685" cy="99.333" rx="32.726" ry="17.533"/>
	<ellipse fill="none" stroke="#000000" stroke-width="0.5" cx="322.685" cy="99.333" rx="28.433" ry="15.232"/>
	<path fill="#E2E2E2" stroke="#000000" stroke-width="0.5" d="M322.685,116.865c-16.158,0-29.578-6.273-32.244-14.523
		c-0.479-1.54-0.479-3.008-0.479-3.008s0,5.216,0,6.02c0,9.683,14.651,17.532,32.726,17.532c18.073,0,32.725-7.851,32.725-17.532
		c0-0.835,0-6.02,0-6.02s0,1.513-0.48,3.008C352.265,110.591,338.843,116.865,322.685,116.865z"/>
	<g>
		<path fill="#FFFFFF" stroke="#000000" stroke-width="0.5" d="M310.794,100.323l-1.24,2.829l-14.967-2.552h9.58l1.242-3.105
			l9.544,0.004l2.784-8.05h10.771c7.399,0,10.063,1.496,9.006,4.548l-0.242,0.705c-0.703,2.033-2.57,3.305-5.976,3.953l-0.019,0.058
			c3.604,0.646,4.59,2.12,3.865,4.209l-0.558,1.605c-1.056,3.052-5.319,4.688-12.46,4.688h-11.227l3.076-8.893H310.794z
			 M321.116,100.32l-2.1,6.071h4.088c2.401,0,3.865-0.478,4.373-1.947l0.596-1.725c0.635-1.834-0.533-2.399-3.779-2.399H321.116
			L321.116,100.32z M323.897,92.273l-1.806,5.226h2.789c2.661,0,4.459-0.51,5.007-2.09l0.383-1.104
			c0.488-1.41-0.401-2.032-2.932-2.032H323.897L323.897,92.273z"/>
	</g>
</g>
<g>
	<ellipse fill="#FFFFFF" stroke="#000000" stroke-width="0.5" cx="323.328" cy="95.109" rx="32.726" ry="17.532"/>
	<ellipse fill="none" stroke="#000000" stroke-width="0.5" cx="323.328" cy="95.109" rx="28.433" ry="15.231"/>
	<path fill="#E2E2E2" stroke="#000000" stroke-width="0.5" d="M323.328,112.642c-16.158,0-29.578-6.273-32.244-14.521
		c-0.479-1.544-0.479-3.012-0.479-3.012s0,5.219,0,6.021c0,9.683,14.65,17.531,32.725,17.531c18.072,0,32.725-7.85,32.725-17.531
		c0-0.835,0-6.021,0-6.021s0,1.514-0.481,3.012C352.906,106.367,339.485,112.642,323.328,112.642z"/>
	<g>
		<path fill="#FFFFFF" stroke="#000000" stroke-width="0.5" d="M311.438,96.1l-1.242,2.83l-14.967-2.555h9.582l1.239-3.104
			l9.546,0.003l2.782-8.05h10.774c7.396,0,10.061,1.498,9.006,4.548l-0.244,0.707c-0.704,2.032-2.568,3.302-5.975,3.951l-0.02,0.059
			c3.604,0.647,4.59,2.117,3.866,4.206l-0.558,1.608c-1.055,3.051-5.319,4.688-12.461,4.688h-11.227l3.075-8.892L311.438,96.1
			L311.438,96.1z M321.759,96.097l-2.1,6.069h4.09c2.4,0,3.865-0.479,4.372-1.947l0.597-1.722c0.635-1.835-0.533-2.4-3.779-2.4
			H321.759L321.759,96.097z M324.543,88.049l-1.806,5.226h2.789c2.66,0,4.459-0.509,5.004-2.089l0.385-1.103
			c0.486-1.413-0.4-2.034-2.932-2.034H324.543L324.543,88.049z"/>
	</g>
</g>
<g>
	<ellipse fill="#FFFFFF" stroke="#000000" stroke-width="0.5" cx="325.558" cy="89.76" rx="32.727" ry="17.533"/>
	<ellipse fill="none" stroke="#000000" stroke-width="0.5" cx="325.558" cy="89.76" rx="28.434" ry="15.232"/>
	<path fill="#E2E2E2" stroke="#000000" stroke-width="0.5" d="M325.558,107.293c-16.158,0-29.578-6.274-32.244-14.524
		c-0.479-1.542-0.479-3.01-0.479-3.01s0,5.217,0,6.02c0,9.685,14.651,17.532,32.726,17.532c18.073,0,32.726-7.849,32.726-17.532
		c0-0.834,0-6.02,0-6.02s0,1.515-0.481,3.01C355.138,101.019,341.716,107.293,325.558,107.293z"/>
	<g>
		<path fill="#FFFFFF" stroke="#000000" stroke-width="0.5" d="M313.669,90.75l-1.242,2.83l-14.967-2.555h9.581l1.241-3.104
			l9.544,0.003l2.784-8.048h10.771c7.398,0,10.063,1.497,9.006,4.548l-0.242,0.705c-0.703,2.032-2.569,3.304-5.976,3.954
			l-0.019,0.057c3.604,0.647,4.59,2.118,3.865,4.207l-0.557,1.608c-1.057,3.051-5.32,4.687-12.461,4.687h-11.229l3.076-8.892
			H313.669z M323.989,90.748l-2.102,6.069h4.09c2.401,0,3.865-0.479,4.373-1.946l0.596-1.725c0.636-1.835-0.533-2.398-3.777-2.398
			H323.989L323.989,90.748z M326.772,82.701l-1.807,5.223h2.79c2.659,0,4.457-0.509,5.004-2.088l0.384-1.104
			c0.488-1.41-0.401-2.031-2.932-2.031H326.772L326.772,82.701z"/>
	</g>
</g>
<g>
	<path fill="#FFFFFF" stroke="#000000" stroke-width="0.5" d="M438.503,109.356c18.073,0,32.726,7.853,32.726,17.531
		c0,9.684-14.651,17.534-32.726,17.534c-18.072,0-32.725-7.852-32.725-17.534C405.778,117.208,420.431,109.356,438.503,109.356z"/>
	<ellipse fill="none" stroke="#000000" stroke-width="0.5" cx="438.503" cy="126.89" rx="28.433" ry="15.232"/>
	<path fill="#E2E2E2" stroke="#000000" stroke-width="0.5" d="M438.503,144.422c-16.159,0-29.578-6.274-32.244-14.524
		c-0.48-1.54-0.48-3.01-0.48-3.01s0,5.218,0,6.021c0,9.683,14.652,17.532,32.726,17.532s32.725-7.851,32.725-17.532
		c0-0.834,0-6.021,0-6.021s0,1.515-0.482,3.01C468.082,138.147,454.661,144.422,438.503,144.422z"/>
	<g>
		<path fill="#FFFFFF" stroke="#000000" stroke-width="0.5" d="M426.613,127.88l-1.241,2.829l-14.967-2.553h9.58l1.242-3.105
			l9.544,0.003l2.782-8.048h10.773c7.398,0,10.061,1.496,9.006,4.547l-0.242,0.706c-0.706,2.033-2.569,3.304-5.976,3.953
			l-0.021,0.057c3.604,0.647,4.591,2.118,3.866,4.207l-0.555,1.607c-1.058,3.052-5.322,4.688-12.463,4.688h-11.228l3.076-8.892
			L426.613,127.88L426.613,127.88z M436.934,127.877l-2.101,6.07h4.09c2.402,0,3.866-0.478,4.374-1.946l0.595-1.726
			c0.636-1.834-0.531-2.398-3.777-2.398H436.934L436.934,127.877z M439.717,119.83l-1.806,5.224h2.79
			c2.66,0,4.458-0.509,5.005-2.089l0.383-1.104c0.489-1.409-0.401-2.031-2.931-2.031H439.717L439.717,119.83z"/>
	</g>
</g>
<g>
	<ellipse fill="#FFFFFF" stroke="#000000" stroke-width="0.5" cx="436.372" cy="118.569" rx="32.725" ry="17.532"/>
	<ellipse fill="none" stroke="#000000" stroke-width="0.5" cx="436.372" cy="118.568" rx="28.432" ry="15.232"/>
	<path fill="#E2E2E2" stroke="#000000" stroke-width="0.5" d="M436.372,136.102c-16.159,0-29.579-6.273-32.244-14.521
		c-0.48-1.543-0.48-3.011-0.48-3.011s0,5.217,0,6.021c0,9.682,14.651,17.532,32.726,17.532s32.725-7.852,32.725-17.532
		c0-0.835,0-6.021,0-6.021s0,1.513-0.48,3.011C465.951,129.827,452.53,136.102,436.372,136.102z"/>
	<g>
		<path fill="#FFFFFF" stroke="#000000" stroke-width="0.5" d="M424.483,119.56l-1.244,2.83l-14.965-2.554h9.58l1.242-3.104
			l9.543,0.004l2.784-8.049h10.772c7.398,0,10.061,1.496,9.006,4.547l-0.243,0.706c-0.705,2.033-2.569,3.303-5.975,3.952
			l-0.021,0.059c3.604,0.646,4.591,2.118,3.866,4.206l-0.557,1.608c-1.056,3.05-5.32,4.688-12.461,4.688h-11.228l3.076-8.893
			H424.483z M434.804,119.557l-2.101,6.07h4.089c2.402,0,3.866-0.479,4.374-1.947l0.595-1.723c0.636-1.835-0.533-2.4-3.778-2.4
			H434.804L434.804,119.557z M437.586,111.51l-1.806,5.226h2.789c2.661,0,4.459-0.509,5.006-2.091l0.383-1.102
			c0.489-1.411-0.401-2.033-2.931-2.033H437.586L437.586,111.51z"/>
	</g>
</g>
<g>
	<ellipse fill="#FFFFFF" stroke="#000000" stroke-width="0.5" cx="440.999" cy="112.551" rx="32.725" ry="17.533"/>
	<ellipse fill="none" stroke="#000000" stroke-width="0.5" cx="440.999" cy="112.551" rx="28.433" ry="15.233"/>
	<path fill="#E2E2E2" stroke="#000000" stroke-width="0.5" d="M440.999,130.084c-16.158,0-29.577-6.274-32.244-14.524
		c-0.48-1.541-0.48-3.01-0.48-3.01s0,5.218,0,6.021c0,9.684,14.651,17.531,32.726,17.531s32.725-7.849,32.725-17.531
		c0-0.834,0-6.021,0-6.021s0,1.514-0.481,3.01C470.578,123.81,457.157,130.084,440.999,130.084z"/>
	<g>
		<path fill="#FFFFFF" stroke="#000000" stroke-width="0.5" d="M429.11,113.542l-1.242,2.829l-14.967-2.555h9.581l1.239-3.104
			l9.545,0.003l2.784-8.05h10.773c7.397,0,10.061,1.498,9.006,4.548l-0.244,0.706c-0.704,2.032-2.569,3.305-5.975,3.954l-0.02,0.057
			c3.605,0.647,4.59,2.117,3.866,4.207l-0.557,1.607c-1.055,3.052-5.32,4.688-12.462,4.688h-11.227l3.075-8.892L429.11,113.542
			L429.11,113.542z M439.431,113.539l-2.101,6.068h4.09c2.401,0,3.865-0.478,4.372-1.944l0.596-1.726
			c0.634-1.834-0.532-2.398-3.778-2.398H439.431L439.431,113.539z M442.214,105.49l-1.806,5.226h2.789
			c2.66,0,4.458-0.509,5.005-2.089l0.383-1.104c0.489-1.411-0.401-2.032-2.931-2.032L442.214,105.49L442.214,105.49z"/>
	</g>
</g>
<ellipse fill="#FFFFFF" stroke="#000000" stroke-width="0.5" cx="288.968" cy="173.777" rx="32.725" ry="17.532"/>
<g>
	<polygon fill="#D8D8D8" points="453.169,235.009 458.271,245.118 497.841,265.335 537.409,245.118 532.309,235.009 
		492.739,255.227 	"/>
</g>
<polygon fill="#E2E2E2" stroke="#000000" stroke-width="0.5" points="492.739,255.227 492.739,206.092 532.309,185.873 
	532.309,235.009 "/>
<polygon fill="#F7F7F7" stroke="#000000" stroke-width="0.5" points="492.739,255.227 492.739,206.092 453.169,185.873 
	453.169,235.009 "/>
<polygon fill="#D8D8D8" points="492.739,165.295 532.309,185.873 492.739,206.092 453.17,185.873 "/>
<polygon fill="#F7F7F7" stroke="#000000" stroke-width="0.5" points="477.821,149.329 438.253,169.547 453.169,185.513 
	492.739,165.295 "/>
<polygon fill="#F7F7F7" stroke="#000000" stroke-width="0.5" points="507.656,149.329 547.225,169.547 532.309,185.513 
	492.739,165.295 "/>
<line fill="none" stroke="#000000" stroke-width="0.5" x1="492.739" y1="165.295" x2="492.739" y2="206.092"/>
<polygon fill="#E2E2E2" stroke="#000000" stroke-width="0.5" points="532.309,185.873 492.739,206.092 507.656,222.059 
	547.225,201.839 "/>
<ellipse fill="none" stroke="#000000" stroke-width="0.5" cx="288.968" cy="173.777" rx="28.434" ry="15.231"/>
<path fill="#E2E2E2" stroke="#000000" stroke-width="0.5" d="M288.968,191.31c-16.158,0-29.578-6.273-32.244-14.522
	c-0.48-1.543-0.48-3.011-0.48-3.011s0,5.219,0,6.021c0,9.683,14.652,17.531,32.725,17.531c18.073,0,32.726-7.85,32.726-17.531
	c0-0.834,0-6.021,0-6.021s0,1.515-0.481,3.011C318.547,185.035,305.126,191.31,288.968,191.31z"/>
<g>
	<path fill="#FFFFFF" stroke="#000000" stroke-width="0.5" d="M277.079,174.769l-1.242,2.829l-14.967-2.555h9.581l1.241-3.104
		l9.543,0.003l2.785-8.05h10.773c7.396,0,10.061,1.498,9.006,4.548l-0.244,0.707c-0.703,2.031-2.568,3.303-5.974,3.952l-0.021,0.058
		c3.604,0.647,4.59,2.117,3.867,4.206l-0.558,1.608c-1.056,3.051-5.321,4.688-12.462,4.688h-11.228l3.076-8.893h-3.178V174.769z
		 M287.399,174.765l-2.101,6.07h4.089c2.401,0,3.865-0.479,4.373-1.947l0.596-1.723c0.636-1.835-0.532-2.4-3.777-2.4H287.399
		L287.399,174.765z M290.183,166.718l-1.807,5.225h2.791c2.659,0,4.459-0.509,5.004-2.089l0.383-1.103
		c0.489-1.413-0.4-2.033-2.931-2.033H290.183L290.183,166.718z"/>
</g>
<g>
	<ellipse fill="#FFFFFF" stroke="#000000" stroke-width="0.5" cx="456.052" cy="268.138" rx="32.727" ry="17.533"/>
	<ellipse fill="none" stroke="#000000" stroke-width="0.5" cx="456.052" cy="268.138" rx="28.434" ry="15.232"/>
	<path fill="#E2E2E2" stroke="#000000" stroke-width="0.5" d="M456.052,285.671c-16.157,0-29.579-6.274-32.244-14.523
		c-0.479-1.543-0.479-3.01-0.479-3.01s0,5.216,0,6.019c0,9.684,14.65,17.534,32.725,17.534s32.727-7.852,32.727-17.534
		c0-0.834,0-6.019,0-6.019s0,1.514-0.482,3.01C485.631,279.396,472.21,285.671,456.052,285.671z"/>
	<g>
		<path fill="#FFFFFF" stroke="#000000" stroke-width="0.5" d="M444.163,269.128l-1.242,2.829l-14.967-2.553h9.581l1.241-3.105
			l9.544,0.003l2.783-8.048h10.772c7.399,0,10.062,1.496,9.006,4.548l-0.243,0.705c-0.703,2.033-2.568,3.304-5.975,3.954
			l-0.02,0.057c3.605,0.646,4.591,2.118,3.867,4.207l-0.558,1.607c-1.056,3.052-5.32,4.688-12.461,4.688h-11.229l3.076-8.892
			H444.163z M454.483,269.125l-2.102,6.07h4.09c2.401,0,3.867-0.479,4.373-1.946l0.595-1.725c0.637-1.835-0.532-2.399-3.776-2.399
			H454.483L454.483,269.125z M457.268,261.079l-1.807,5.223h2.79c2.659,0,4.457-0.507,5.004-2.089l0.383-1.103
			c0.489-1.41-0.4-2.031-2.931-2.031H457.268L457.268,261.079z"/>
	</g>
</g>
<path fill="#D8D8D8" d="M236.556,326.308c-14.957,0-27.382-5.81-29.849-13.445c-0.444-1.427-0.444-2.786-0.444-2.786s0,4.83,0,5.573
	c0,8.962,13.563,16.231,30.293,16.231s30.295-7.271,30.295-16.231c0-0.771,0-5.573,0-5.573s0,1.401-0.448,2.786
	C263.938,320.498,251.515,326.308,236.556,326.308z"/>
<g>
	<ellipse fill="#FFFFFF" stroke="#000000" stroke-width="0.5" cx="234.359" cy="303.446" rx="32.726" ry="17.532"/>
	<ellipse fill="none" stroke="#000000" stroke-width="0.5" cx="234.359" cy="303.446" rx="28.433" ry="15.231"/>
	<path fill="#E2E2E2" stroke="#000000" stroke-width="0.5" d="M234.359,320.978c-16.158,0-29.577-6.272-32.243-14.522
		c-0.481-1.543-0.481-3.01-0.481-3.01s0,5.218,0,6.021c0,9.683,14.653,17.53,32.725,17.53c18.074,0,32.726-7.849,32.726-17.53
		c0-0.834,0-6.021,0-6.021s0,1.512-0.483,3.01C263.939,314.704,250.518,320.978,234.359,320.978z"/>
	<g>
		<path fill="#FFFFFF" stroke="#000000" stroke-width="0.5" d="M222.471,304.438l-1.242,2.829l-14.966-2.555h9.58l1.242-3.104
			l9.544,0.003l2.783-8.05h10.773c7.398,0,10.061,1.498,9.006,4.548l-0.242,0.707c-0.706,2.031-2.571,3.304-5.976,3.951l-0.02,0.059
			c3.605,0.647,4.59,2.117,3.866,4.206l-0.557,1.608c-1.054,3.049-5.32,4.688-12.461,4.688h-11.227l3.075-8.892h-3.178V304.438z
			 M232.791,304.432l-2.101,6.071h4.09c2.402,0,3.866-0.479,4.372-1.947l0.597-1.722c0.635-1.838-0.534-2.402-3.778-2.402H232.791
			L232.791,304.432z M235.574,296.386l-1.806,5.226h2.79c2.659,0,4.457-0.509,5.005-2.089l0.382-1.103
			c0.489-1.413-0.401-2.034-2.93-2.034H235.574L235.574,296.386z"/>
	</g>
</g>
<g>
	<ellipse fill="#FFFFFF" stroke="#000000" stroke-width="0.5" cx="460.345" cy="259.817" rx="32.726" ry="17.533"/>
	<ellipse fill="none" stroke="#000000" stroke-width="0.5" cx="460.345" cy="259.817" rx="28.434" ry="15.233"/>
	<path fill="#E2E2E2" stroke="#000000" stroke-width="0.5" d="M460.345,277.35c-16.159,0-29.578-6.273-32.244-14.521
		c-0.479-1.543-0.479-3.01-0.479-3.01s0,5.216,0,6.019c0,9.684,14.652,17.534,32.725,17.534c18.073,0,32.726-7.852,32.726-17.534
		c0-0.834,0-6.019,0-6.019s0,1.513-0.483,3.01C489.924,271.075,476.503,277.35,460.345,277.35z"/>
	<g>
		<path fill="#FFFFFF" stroke="#000000" stroke-width="0.5" d="M448.456,260.808l-1.242,2.83l-14.967-2.553h9.58l1.242-3.106
			l9.544,0.006l2.783-8.051h10.772c7.399,0,10.062,1.496,9.006,4.549l-0.242,0.703c-0.704,2.035-2.568,3.306-5.976,3.954l-0.02,0.06
			c3.605,0.646,4.592,2.115,3.867,4.206l-0.557,1.607c-1.056,3.05-5.322,4.688-12.462,4.688h-11.229l3.076-8.893H448.456z
			 M458.775,260.805l-2.102,6.071h4.09c2.402,0,3.866-0.479,4.374-1.947l0.596-1.725c0.635-1.834-0.532-2.399-3.778-2.399H458.775
			L458.775,260.805z M461.559,252.758l-1.806,5.227h2.791c2.659,0,4.457-0.509,5.004-2.092l0.383-1.103
			c0.489-1.41-0.4-2.032-2.931-2.032H461.559L461.559,252.758z"/>
	</g>
</g>
<g>
	<g>
		<path fill="#F7F7F7" stroke="#000000" stroke-width="0.5" d="M466.361,215.824c-0.388-0.653-1.097-1.226-2.168-1.747l-2.883-1.406
			l-0.715,3.509l-2.863-1.397l-0.319,1.334l-3.226-1.574l4.821,3.893l0.328-1.235l0.956,0.467l-0.79,3.877l3.052,1.487
			c1.896,0.927,3.049,0.673,3.335-0.732l0.144-0.702c0.188-0.929-0.07-1.729-0.794-2.442c0.737,0.012,1.17-0.386,1.341-1.229
			l0.063-0.307C466.776,216.956,466.685,216.372,466.361,215.824z M463.944,220.431l-0.152,0.749
			c-0.109,0.537-0.386,0.633-0.986,0.339l-0.882-0.43l0.487-2.395l0.701,0.343c0.4,0.197,0.645,0.382,0.763,0.582
			C463.992,219.817,464.015,220.083,463.944,220.431z M464.508,216.672l-0.097,0.479c-0.116,0.565-0.46,0.664-1.149,0.328
			l-0.55-0.269l0.413-2.024l0.77,0.373c0.273,0.135,0.453,0.277,0.548,0.438C464.544,216.172,464.566,216.392,464.508,216.672z"/>
		<path fill="#F7F7F7" stroke="#000000" stroke-width="0.5" d="M468.683,226.14c-0.977-0.476-1.681-1.068-2.09-1.758
			c-0.362-0.616-0.479-1.28-0.341-1.973l1.336-6.674l2.112,1.028l-1.362,6.806c-0.048,0.242-0.021,0.448,0.075,0.613
			c0.101,0.169,0.291,0.322,0.567,0.457c0.576,0.281,0.879,0.18,0.979-0.328l1.354-6.761l2.013,0.982l-1.344,6.718
			C471.688,226.719,470.517,227.034,468.683,226.14L468.683,226.14z"/>
		<path fill="#F7F7F7" stroke="#000000" stroke-width="0.5" d="M478.918,221.951c-0.386-0.652-1.095-1.225-2.165-1.747l-2.877-1.401
			l-1.776,8.882l2.111,1.03l0.704-3.514l0.516,0.252c0.384,0.187,0.63,0.382,0.757,0.594c0.129,0.218,0.156,0.497,0.084,0.855
			L476,228.26c-0.145,0.715-0.104,0.9-0.047,1.183l0.028,0.135l2.167,1.058l-0.063-0.212c-0.11-0.379-0.065-0.673,0.014-1.074
			l0.269-1.333c0.121-0.604,0.172-1.486-0.664-2.357c0.749,0.012,1.197-0.395,1.365-1.236l0.136-0.677
			C479.335,223.082,479.242,222.497,478.918,221.951z M477.074,222.802l-0.17,0.853c-0.114,0.566-0.456,0.662-1.146,0.329
			l-0.548-0.269l0.479-2.396l0.767,0.373c0.273,0.134,0.453,0.276,0.548,0.438C477.108,222.302,477.131,222.522,477.074,222.802z"/>
		<path fill="#F7F7F7" stroke="#000000" stroke-width="0.5" d="M481.074,232.17c-0.979-0.478-1.683-1.07-2.09-1.76
			c-0.364-0.613-0.479-1.277-0.34-1.971l0.127-0.635l2.011,0.982l-0.152,0.763c-0.048,0.243-0.021,0.45,0.074,0.615
			c0.1,0.168,0.292,0.319,0.567,0.456c0.577,0.28,0.88,0.182,0.979-0.327c0.104-0.523-0.043-1.049-1.139-2.48
			c-1.323-1.733-1.735-2.773-1.522-3.838c0.293-1.466,1.453-1.788,3.266-0.903c0.962,0.47,1.653,1.053,2.059,1.734
			c0.365,0.614,0.479,1.281,0.34,1.979l-0.075,0.376l-2.013-0.98l0.101-0.506c0.053-0.258,0.026-0.47-0.071-0.637
			c-0.096-0.161-0.271-0.303-0.534-0.433c-0.553-0.269-0.847-0.158-0.949,0.358c-0.104,0.521,0.044,1.047,1.142,2.479
			c1.321,1.734,1.732,2.774,1.521,3.84C484.079,232.749,482.907,233.064,481.074,232.17L481.074,232.17z"/>
		<path fill="#F7F7F7" stroke="#000000" stroke-width="0.5" d="M488.03,235.454l-2.111-1.03l1.479-7.396l-1.912-0.933l0.298-1.485
			l5.937,2.896l-0.298,1.485l-1.912-0.933L488.03,235.454L488.03,235.454z"/>
	</g>
</g>
<g>
	<g>
		<path fill="#F7F7F7" stroke="#000000" stroke-width="0.5" d="M367.364,51.289c-0.307-0.521-0.87-0.975-1.725-1.392l-2.291-1.116
			l-0.566,2.79l-2.278-1.111l-0.255,1.06l-2.563-1.25l3.834,3.095l0.261-0.983l0.76,0.373l-0.627,3.083l2.425,1.183
			c1.508,0.734,2.426,0.534,2.652-0.584l0.113-0.558c0.15-0.738-0.058-1.376-0.633-1.942c0.59,0.009,0.932-0.307,1.066-0.978
			l0.052-0.243C367.694,52.188,367.622,51.725,367.364,51.289z M365.442,54.951l-0.12,0.598c-0.087,0.427-0.308,0.501-0.784,0.269
			l-0.702-0.342l0.388-1.902l0.559,0.271c0.318,0.155,0.513,0.302,0.607,0.462C365.479,54.465,365.499,54.675,365.442,54.951z
			 M365.894,51.962l-0.078,0.383c-0.092,0.449-0.366,0.527-0.914,0.262l-0.438-0.215l0.327-1.607l0.61,0.297
			c0.218,0.105,0.359,0.221,0.438,0.348C365.92,51.564,365.938,51.74,365.894,51.962z"/>
		<path fill="#F7F7F7" stroke="#000000" stroke-width="0.5" d="M369.21,59.491c-0.775-0.38-1.335-0.851-1.66-1.399
			c-0.29-0.488-0.382-1.016-0.271-1.568l1.063-5.305l1.68,0.819l-1.082,5.409c-0.039,0.191-0.02,0.355,0.061,0.488
			c0.077,0.133,0.23,0.255,0.45,0.362c0.458,0.223,0.698,0.144,0.778-0.26l1.075-5.376l1.601,0.779l-1.068,5.344
			C371.601,59.952,370.669,60.202,369.21,59.491L369.21,59.491z"/>
		<path fill="#F7F7F7" stroke="#000000" stroke-width="0.5" d="M377.349,56.159c-0.307-0.519-0.869-0.974-1.722-1.389l-2.287-1.115
			l-1.411,7.063l1.678,0.817l0.561-2.792l0.408,0.2c0.306,0.146,0.502,0.303,0.603,0.471c0.104,0.174,0.126,0.396,0.067,0.683
			l-0.217,1.077c-0.112,0.568-0.082,0.717-0.036,0.94l0.022,0.107l1.723,0.839l-0.049-0.169c-0.088-0.3-0.054-0.533,0.011-0.854
			l0.212-1.059c0.097-0.482,0.138-1.184-0.528-1.876c0.597,0.01,0.953-0.313,1.086-0.983l0.107-0.537
			C377.681,57.061,377.604,56.595,377.349,56.159z M375.883,56.838l-0.135,0.677c-0.091,0.45-0.363,0.528-0.91,0.261l-0.437-0.212
			l0.381-1.905l0.609,0.297c0.217,0.105,0.359,0.221,0.437,0.348C375.91,56.438,375.927,56.614,375.883,56.838z"/>
		<path fill="#F7F7F7" stroke="#000000" stroke-width="0.5" d="M379.063,64.285c-0.777-0.38-1.336-0.85-1.662-1.399
			c-0.289-0.486-0.381-1.015-0.271-1.565l0.103-0.504l1.599,0.78l-0.121,0.608c-0.038,0.19-0.019,0.354,0.06,0.487
			c0.078,0.134,0.231,0.255,0.451,0.362c0.458,0.223,0.698,0.144,0.779-0.262c0.083-0.414-0.034-0.832-0.906-1.973
			c-1.053-1.379-1.379-2.206-1.211-3.052c0.234-1.165,1.156-1.419,2.598-0.719c0.766,0.374,1.314,0.837,1.638,1.38
			c0.289,0.488,0.38,1.018,0.27,1.574l-0.06,0.3l-1.602-0.78l0.08-0.403c0.041-0.202,0.021-0.372-0.057-0.506
			c-0.076-0.128-0.216-0.239-0.425-0.343c-0.441-0.214-0.675-0.127-0.755,0.285c-0.084,0.414,0.033,0.834,0.904,1.972
			c1.053,1.378,1.381,2.206,1.211,3.052C381.452,64.747,380.521,64.997,379.063,64.285L379.063,64.285z"/>
		<path fill="#F7F7F7" stroke="#000000" stroke-width="0.5" d="M384.594,66.896l-1.679-0.819l1.176-5.879l-1.521-0.742l0.238-1.183
			l4.719,2.304l-0.234,1.182l-1.521-0.74L384.594,66.896L384.594,66.896z"/>
	</g>
</g>
<polygon fill="#F7F7F7" stroke="#000000" stroke-width="0.5" points="453.17,185.873 492.739,206.092 477.821,222.059 
	438.253,201.839 "/>
</svg>
